<svg width="414" height="896" viewBox="0 0 414 896" fill="none" xmlns="http://www.w3.org/2000/svg">
<path d="M-32 82.7654C-40.7695 76.8217 -47.6233 67.6473 -51.4984 56.6649C-55.3736 45.6825 -56.0534 33.506 -53.4326 22.0238C-50.8117 10.5416 -45.0366 0.395419 -37.003 -6.84108C-28.9694 -14.0776 -19.1262 -18 -8.99998 -18C1.12619 -18 10.9694 -14.0776 19.003 -6.84108C27.0367 0.395419 32.8118 10.5416 35.4326 22.0238C38.0534 33.506 37.3736 45.6825 33.4985 56.6649C29.6234 67.6473 22.7695 76.8217 14 82.7654C5.23049 88.1807 -1.62332 96.5396 -5.49844 106.546C-9.37356 116.552 -10.0534 127.646 -7.43257 138.108C-4.81172 148.569 0.963356 157.814 8.99699 164.407C17.0306 171 26.8738 174.574 37 174.574C47.1262 174.574 56.9694 171 65.003 164.407C73.0367 157.814 78.8118 148.569 81.4326 138.108C84.0534 127.646 83.3736 116.552 79.4985 106.546C75.6234 96.5396 68.7695 88.1807 60 82.7654C51.2305 77.3501 44.3767 68.9911 40.5016 58.9849C36.6264 48.9788 35.9466 37.8846 38.5674 27.423C41.1883 16.9615 46.9634 7.71719 54.997 1.12394C63.0306 -5.46931 72.8738 -9.04308 83 -9.04308C93.1262 -9.04308 102.969 -5.46931 111.003 1.12394C119.037 7.71719 124.812 16.9615 127.433 27.423C130.053 37.8846 129.374 48.9788 125.498 58.9849C121.623 68.9911 114.77 77.3501 106 82.7654C97.2305 88.5769 90.3767 97.5475 86.5016 108.286C82.6264 119.024 81.9466 130.93 84.5674 142.157C87.1883 153.384 92.9634 163.305 100.997 170.381C109.031 177.456 118.874 181.292 129 181.292C139.126 181.292 148.969 177.456 157.003 170.381C165.037 163.305 170.812 153.384 173.433 142.157C176.053 130.93 175.374 119.024 171.498 108.286C167.623 97.5475 160.77 88.5769 152 82.7654C143.23 76.9538 136.377 67.9833 132.502 57.2449C128.626 46.5066 127.947 34.6006 130.567 23.3736C133.188 12.1465 138.963 2.22586 146.997 -4.84982C155.031 -11.9255 164.874 -15.7608 175 -15.7608C185.126 -15.7608 194.969 -11.9255 203.003 -4.84982C211.037 2.22586 216.812 12.1465 219.433 23.3736C222.053 34.6006 221.374 46.5066 217.498 57.2449C213.623 67.9833 206.77 76.9538 198 82.7654C189.23 87.4322 182.377 94.6359 178.502 103.259C174.626 111.882 173.947 121.443 176.567 130.459C179.188 139.474 184.963 147.441 192.997 153.123C201.031 158.805 210.874 161.885 221 161.885C231.126 161.885 240.969 158.805 249.003 153.123C257.037 147.441 262.812 139.474 265.433 130.459C268.053 121.443 267.374 111.882 263.498 103.259C259.623 94.6359 252.77 87.4322 244 82.7654C235.231 78.0985 228.377 70.8949 224.502 62.2717C220.626 53.6485 219.947 44.0876 222.567 35.072C225.188 26.0563 230.963 18.0897 238.997 12.4077C247.031 6.72572 256.874 3.6459 267 3.6459C277.126 3.6459 286.969 6.72572 295.003 12.4077C303.037 18.0897 308.812 26.0563 311.433 35.072C314.053 44.0876 313.374 53.6485 309.498 62.2717C305.623 70.8949 298.77 78.0985 290 82.7654C281.231 88.4889 274.377 97.3235 270.502 107.899C266.626 118.475 265.947 130.2 268.567 141.257C271.188 152.314 276.963 162.085 284.997 169.053C293.031 176.022 302.874 179.799 313 179.799C323.126 179.799 332.969 176.022 341.003 169.053C349.037 162.085 354.812 152.314 357.433 141.257C360.053 130.2 359.374 118.475 355.498 107.899C351.623 97.3235 344.77 88.4889 336 82.7654C327.231 77.0419 320.377 68.2072 316.502 57.6316C312.626 47.056 311.947 35.3304 314.567 24.2735C317.188 13.2165 322.963 3.44616 330.997 -3.52232C339.031 -10.4908 348.874 -14.2679 359 -14.2679C369.126 -14.2679 378.969 -10.4908 387.003 -3.52232C395.037 3.44616 400.812 13.2165 403.433 24.2735C406.053 35.3304 405.374 47.056 401.498 57.6316C397.623 68.2072 390.77 77.0419 382 82.7654C373.231 88.753 366.377 97.9954 362.502 109.059C358.626 120.123 357.947 132.39 360.567 143.957C363.188 155.524 368.963 165.745 376.997 173.036C385.031 180.326 394.874 184.277 405 184.277C415.126 184.277 424.969 180.326 433.003 173.036C441.037 165.745 446.812 155.524 449.433 143.957C452.053 132.39 451.374 120.123 447.498 109.059C443.623 97.9954 436.77 88.753 428 82.7654" stroke="white" stroke-opacity="0.75" stroke-width="5"/>
<path d="M-32 270.765C-40.7695 264.822 -47.6233 255.647 -51.4984 244.665C-55.3736 233.683 -56.0534 221.506 -53.4326 210.024C-50.8117 198.542 -45.0366 188.395 -37.003 181.159C-28.9694 173.922 -19.1262 170 -8.99998 170C1.12619 170 10.9694 173.922 19.003 181.159C27.0367 188.395 32.8118 198.542 35.4326 210.024C38.0534 221.506 37.3736 233.683 33.4985 244.665C29.6234 255.647 22.7695 264.822 14 270.765C5.23049 276.181 -1.62332 284.54 -5.49844 294.546C-9.37356 304.552 -10.0534 315.646 -7.43257 326.108C-4.81172 336.569 0.963356 345.814 8.99699 352.407C17.0306 359 26.8738 362.574 37 362.574C47.1262 362.574 56.9694 359 65.003 352.407C73.0367 345.814 78.8118 336.569 81.4326 326.108C84.0534 315.646 83.3736 304.552 79.4985 294.546C75.6234 284.54 68.7695 276.181 60 270.765C51.2305 265.35 44.3767 256.991 40.5016 246.985C36.6264 236.979 35.9466 225.885 38.5674 215.423C41.1883 204.961 46.9634 195.717 54.997 189.124C63.0306 182.531 72.8738 178.957 83 178.957C93.1262 178.957 102.969 182.531 111.003 189.124C119.037 195.717 124.812 204.961 127.433 215.423C130.053 225.885 129.374 236.979 125.498 246.985C121.623 256.991 114.77 265.35 106 270.765C97.2305 276.577 90.3767 285.547 86.5016 296.286C82.6264 307.024 81.9466 318.93 84.5674 330.157C87.1883 341.384 92.9634 351.305 100.997 358.381C109.031 365.456 118.874 369.292 129 369.292C139.126 369.292 148.969 365.456 157.003 358.381C165.037 351.305 170.812 341.384 173.433 330.157C176.053 318.93 175.374 307.024 171.498 296.286C167.623 285.547 160.77 276.577 152 270.765C143.23 264.954 136.377 255.983 132.502 245.245C128.626 234.507 127.947 222.601 130.567 211.374C133.188 200.147 138.963 190.226 146.997 183.15C155.031 176.074 164.874 172.239 175 172.239C185.126 172.239 194.969 176.074 203.003 183.15C211.037 190.226 216.812 200.147 219.433 211.374C222.053 222.601 221.374 234.507 217.498 245.245C213.623 255.983 206.77 264.954 198 270.765C189.23 275.432 182.377 282.636 178.502 291.259C174.626 299.882 173.947 309.443 176.567 318.459C179.188 327.474 184.963 335.441 192.997 341.123C201.031 346.805 210.874 349.885 221 349.885C231.126 349.885 240.969 346.805 249.003 341.123C257.037 335.441 262.812 327.474 265.433 318.459C268.053 309.443 267.374 299.882 263.498 291.259C259.623 282.636 252.77 275.432 244 270.765C235.231 266.099 228.377 258.895 224.502 250.272C220.626 241.648 219.947 232.088 222.567 223.072C225.188 214.056 230.963 206.09 238.997 200.408C247.031 194.726 256.874 191.646 267 191.646C277.126 191.646 286.969 194.726 295.003 200.408C303.037 206.09 308.812 214.056 311.433 223.072C314.053 232.088 313.374 241.648 309.498 250.272C305.623 258.895 298.77 266.099 290 270.765C281.231 276.489 274.377 285.324 270.502 295.899C266.626 306.475 265.947 318.2 268.567 329.257C271.188 340.314 276.963 350.085 284.997 357.053C293.031 364.022 302.874 367.799 313 367.799C323.126 367.799 332.969 364.022 341.003 357.053C349.037 350.085 354.812 340.314 357.433 329.257C360.053 318.2 359.374 306.475 355.498 295.899C351.623 285.324 344.77 276.489 336 270.765C327.231 265.042 320.377 256.207 316.502 245.632C312.626 235.056 311.947 223.33 314.567 212.273C317.188 201.217 322.963 191.446 330.997 184.478C339.031 177.509 348.874 173.732 359 173.732C369.126 173.732 378.969 177.509 387.003 184.478C395.037 191.446 400.812 201.217 403.433 212.273C406.053 223.33 405.374 235.056 401.498 245.632C397.623 256.207 390.77 265.042 382 270.765C373.231 276.753 366.377 285.995 362.502 297.059C358.626 308.123 357.947 320.39 360.567 331.957C363.188 343.524 368.963 353.745 376.997 361.036C385.031 368.326 394.874 372.277 405 372.277C415.126 372.277 424.969 368.326 433.003 361.036C441.037 353.745 446.812 343.524 449.433 331.957C452.053 320.39 451.374 308.123 447.498 297.059C443.623 285.995 436.77 276.753 428 270.765" stroke="white" stroke-opacity="0.75" stroke-width="5"/>
<path d="M-32 458.765C-40.7695 452.822 -47.6233 443.647 -51.4984 432.665C-55.3736 421.683 -56.0534 409.506 -53.4326 398.024C-50.8117 386.542 -45.0366 376.395 -37.003 369.159C-28.9694 361.922 -19.1262 358 -8.99998 358C1.12619 358 10.9694 361.922 19.003 369.159C27.0367 376.395 32.8118 386.542 35.4326 398.024C38.0534 409.506 37.3736 421.683 33.4985 432.665C29.6234 443.647 22.7695 452.822 14 458.765C5.23049 464.181 -1.62332 472.54 -5.49844 482.546C-9.37356 492.552 -10.0534 503.646 -7.43257 514.108C-4.81172 524.569 0.963356 533.814 8.99699 540.407C17.0306 547 26.8738 550.574 37 550.574C47.1262 550.574 56.9694 547 65.003 540.407C73.0367 533.814 78.8118 524.569 81.4326 514.108C84.0534 503.646 83.3736 492.552 79.4985 482.546C75.6234 472.54 68.7695 464.181 60 458.765C51.2305 453.35 44.3767 444.991 40.5016 434.985C36.6264 424.979 35.9466 413.885 38.5674 403.423C41.1883 392.961 46.9634 383.717 54.997 377.124C63.0306 370.531 72.8738 366.957 83 366.957C93.1262 366.957 102.969 370.531 111.003 377.124C119.037 383.717 124.812 392.961 127.433 403.423C130.053 413.885 129.374 424.979 125.498 434.985C121.623 444.991 114.77 453.35 106 458.765C97.2305 464.577 90.3767 473.547 86.5016 484.286C82.6264 495.024 81.9466 506.93 84.5674 518.157C87.1883 529.384 92.9634 539.305 100.997 546.381C109.031 553.456 118.874 557.292 129 557.292C139.126 557.292 148.969 553.456 157.003 546.381C165.037 539.305 170.812 529.384 173.433 518.157C176.053 506.93 175.374 495.024 171.498 484.286C167.623 473.547 160.77 464.577 152 458.765C143.23 452.954 136.377 443.983 132.502 433.245C128.626 422.507 127.947 410.601 130.567 399.374C133.188 388.147 138.963 378.226 146.997 371.15C155.031 364.074 164.874 360.239 175 360.239C185.126 360.239 194.969 364.074 203.003 371.15C211.037 378.226 216.812 388.147 219.433 399.374C222.053 410.601 221.374 422.507 217.498 433.245C213.623 443.983 206.77 452.954 198 458.765C189.23 463.432 182.377 470.636 178.502 479.259C174.626 487.882 173.947 497.443 176.567 506.459C179.188 515.474 184.963 523.441 192.997 529.123C201.031 534.805 210.874 537.885 221 537.885C231.126 537.885 240.969 534.805 249.003 529.123C257.037 523.441 262.812 515.474 265.433 506.459C268.053 497.443 267.374 487.882 263.498 479.259C259.623 470.636 252.77 463.432 244 458.765C235.231 454.099 228.377 446.895 224.502 438.272C220.626 429.648 219.947 420.088 222.567 411.072C225.188 402.056 230.963 394.09 238.997 388.408C247.031 382.726 256.874 379.646 267 379.646C277.126 379.646 286.969 382.726 295.003 388.408C303.037 394.09 308.812 402.056 311.433 411.072C314.053 420.088 313.374 429.648 309.498 438.272C305.623 446.895 298.77 454.099 290 458.765C281.231 464.489 274.377 473.324 270.502 483.899C266.626 494.475 265.947 506.2 268.567 517.257C271.188 528.314 276.963 538.085 284.997 545.053C293.031 552.022 302.874 555.799 313 555.799C323.126 555.799 332.969 552.022 341.003 545.053C349.037 538.085 354.812 528.314 357.433 517.257C360.053 506.2 359.374 494.475 355.498 483.899C351.623 473.324 344.77 464.489 336 458.765C327.231 453.042 320.377 444.207 316.502 433.632C312.626 423.056 311.947 411.33 314.567 400.273C317.188 389.217 322.963 379.446 330.997 372.478C339.031 365.509 348.874 361.732 359 361.732C369.126 361.732 378.969 365.509 387.003 372.478C395.037 379.446 400.812 389.217 403.433 400.273C406.053 411.33 405.374 423.056 401.498 433.632C397.623 444.207 390.77 453.042 382 458.765C373.231 464.753 366.377 473.995 362.502 485.059C358.626 496.123 357.947 508.39 360.567 519.957C363.188 531.524 368.963 541.745 376.997 549.036C385.031 556.326 394.874 560.277 405 560.277C415.126 560.277 424.969 556.326 433.003 549.036C441.037 541.745 446.812 531.524 449.433 519.957C452.053 508.39 451.374 496.123 447.498 485.059C443.623 473.995 436.77 464.753 428 458.765" stroke="white" stroke-opacity="0.75" stroke-width="5"/>
<path d="M-32 644.765C-40.7695 638.822 -47.6233 629.647 -51.4984 618.665C-55.3736 607.683 -56.0534 595.506 -53.4326 584.024C-50.8117 572.542 -45.0366 562.395 -37.003 555.159C-28.9694 547.922 -19.1262 544 -8.99998 544C1.12619 544 10.9694 547.922 19.003 555.159C27.0367 562.395 32.8118 572.542 35.4326 584.024C38.0534 595.506 37.3736 607.683 33.4985 618.665C29.6234 629.647 22.7695 638.822 14 644.765C5.23049 650.181 -1.62332 658.54 -5.49844 668.546C-9.37356 678.552 -10.0534 689.646 -7.43257 700.108C-4.81172 710.569 0.963356 719.814 8.99699 726.407C17.0306 733 26.8738 736.574 37 736.574C47.1262 736.574 56.9694 733 65.003 726.407C73.0367 719.814 78.8118 710.569 81.4326 700.108C84.0534 689.646 83.3736 678.552 79.4985 668.546C75.6234 658.54 68.7695 650.181 60 644.765C51.2305 639.35 44.3767 630.991 40.5016 620.985C36.6264 610.979 35.9466 599.885 38.5674 589.423C41.1883 578.961 46.9634 569.717 54.997 563.124C63.0306 556.531 72.8738 552.957 83 552.957C93.1262 552.957 102.969 556.531 111.003 563.124C119.037 569.717 124.812 578.961 127.433 589.423C130.053 599.885 129.374 610.979 125.498 620.985C121.623 630.991 114.77 639.35 106 644.765C97.2305 650.577 90.3767 659.547 86.5016 670.286C82.6264 681.024 81.9466 692.93 84.5674 704.157C87.1883 715.384 92.9634 725.305 100.997 732.381C109.031 739.456 118.874 743.292 129 743.292C139.126 743.292 148.969 739.456 157.003 732.381C165.037 725.305 170.812 715.384 173.433 704.157C176.053 692.93 175.374 681.024 171.498 670.286C167.623 659.547 160.77 650.577 152 644.765C143.23 638.954 136.377 629.983 132.502 619.245C128.626 608.507 127.947 596.601 130.567 585.374C133.188 574.147 138.963 564.226 146.997 557.15C155.031 550.074 164.874 546.239 175 546.239C185.126 546.239 194.969 550.074 203.003 557.15C211.037 564.226 216.812 574.147 219.433 585.374C222.053 596.601 221.374 608.507 217.498 619.245C213.623 629.983 206.77 638.954 198 644.765C189.23 649.432 182.377 656.636 178.502 665.259C174.626 673.882 173.947 683.443 176.567 692.459C179.188 701.474 184.963 709.441 192.997 715.123C201.031 720.805 210.874 723.885 221 723.885C231.126 723.885 240.969 720.805 249.003 715.123C257.037 709.441 262.812 701.474 265.433 692.459C268.053 683.443 267.374 673.882 263.498 665.259C259.623 656.636 252.77 649.432 244 644.765C235.231 640.099 228.377 632.895 224.502 624.272C220.626 615.648 219.947 606.088 222.567 597.072C225.188 588.056 230.963 580.09 238.997 574.408C247.031 568.726 256.874 565.646 267 565.646C277.126 565.646 286.969 568.726 295.003 574.408C303.037 580.09 308.812 588.056 311.433 597.072C314.053 606.088 313.374 615.648 309.498 624.272C305.623 632.895 298.77 640.099 290 644.765C281.231 650.489 274.377 659.324 270.502 669.899C266.626 680.475 265.947 692.2 268.567 703.257C271.188 714.314 276.963 724.085 284.997 731.053C293.031 738.022 302.874 741.799 313 741.799C323.126 741.799 332.969 738.022 341.003 731.053C349.037 724.085 354.812 714.314 357.433 703.257C360.053 692.2 359.374 680.475 355.498 669.899C351.623 659.324 344.77 650.489 336 644.765C327.231 639.042 320.377 630.207 316.502 619.632C312.626 609.056 311.947 597.33 314.567 586.273C317.188 575.217 322.963 565.446 330.997 558.478C339.031 551.509 348.874 547.732 359 547.732C369.126 547.732 378.969 551.509 387.003 558.478C395.037 565.446 400.812 575.217 403.433 586.273C406.053 597.33 405.374 609.056 401.498 619.632C397.623 630.207 390.77 639.042 382 644.765C373.231 650.753 366.377 659.995 362.502 671.059C358.626 682.123 357.947 694.39 360.567 705.957C363.188 717.524 368.963 727.745 376.997 735.036C385.031 742.326 394.874 746.277 405 746.277C415.126 746.277 424.969 742.326 433.003 735.036C441.037 727.745 446.812 717.524 449.433 705.957C452.053 694.39 451.374 682.123 447.498 671.059C443.623 659.995 436.77 650.753 428 644.765" stroke="white" stroke-opacity="0.75" stroke-width="5"/>
<path d="M-33 831.765C-41.7695 825.822 -48.6233 816.647 -52.4984 805.665C-56.3736 794.683 -57.0534 782.506 -54.4326 771.024C-51.8117 759.542 -46.0366 749.395 -38.003 742.159C-29.9694 734.922 -20.1262 731 -9.99998 731C0.126189 731 9.96941 734.922 18.003 742.159C26.0367 749.395 31.8118 759.542 34.4326 771.024C37.0534 782.506 36.3736 794.683 32.4985 805.665C28.6234 816.647 21.7695 825.822 13 831.765C4.23049 837.181 -2.62332 845.54 -6.49844 855.546C-10.3736 865.552 -11.0534 876.646 -8.43257 887.108C-5.81172 897.569 -0.036644 906.814 7.99699 913.407C16.0306 920 25.8738 923.574 36 923.574C46.1262 923.574 55.9694 920 64.003 913.407C72.0367 906.814 77.8118 897.569 80.4326 887.108C83.0534 876.646 82.3736 865.552 78.4985 855.546C74.6234 845.54 67.7695 837.181 59 831.765C50.2305 826.35 43.3767 817.991 39.5016 807.985C35.6264 797.979 34.9466 786.885 37.5674 776.423C40.1883 765.961 45.9634 756.717 53.997 750.124C62.0306 743.531 71.8738 739.957 82 739.957C92.1262 739.957 101.969 743.531 110.003 750.124C118.037 756.717 123.812 765.961 126.433 776.423C129.053 786.885 128.374 797.979 124.498 807.985C120.623 817.991 113.77 826.35 105 831.765C96.2305 837.577 89.3767 846.547 85.5016 857.286C81.6264 868.024 80.9466 879.93 83.5674 891.157C86.1883 902.384 91.9634 912.305 99.997 919.381C108.031 926.456 117.874 930.292 128 930.292C138.126 930.292 147.969 926.456 156.003 919.381C164.037 912.305 169.812 902.384 172.433 891.157C175.053 879.93 174.374 868.024 170.498 857.286C166.623 846.547 159.77 837.577 151 831.765C142.23 825.954 135.377 816.983 131.502 806.245C127.626 795.507 126.947 783.601 129.567 772.374C132.188 761.147 137.963 751.226 145.997 744.15C154.031 737.074 163.874 733.239 174 733.239C184.126 733.239 193.969 737.074 202.003 744.15C210.037 751.226 215.812 761.147 218.433 772.374C221.053 783.601 220.374 795.507 216.498 806.245C212.623 816.983 205.77 825.954 197 831.765C188.23 836.432 181.377 843.636 177.502 852.259C173.626 860.882 172.947 870.443 175.567 879.459C178.188 888.474 183.963 896.441 191.997 902.123C200.031 907.805 209.874 910.885 220 910.885C230.126 910.885 239.969 907.805 248.003 902.123C256.037 896.441 261.812 888.474 264.433 879.459C267.053 870.443 266.374 860.882 262.498 852.259C258.623 843.636 251.77 836.432 243 831.765C234.231 827.099 227.377 819.895 223.502 811.272C219.626 802.648 218.947 793.088 221.567 784.072C224.188 775.056 229.963 767.09 237.997 761.408C246.031 755.726 255.874 752.646 266 752.646C276.126 752.646 285.969 755.726 294.003 761.408C302.037 767.09 307.812 775.056 310.433 784.072C313.053 793.088 312.374 802.648 308.498 811.272C304.623 819.895 297.77 827.099 289 831.765C280.231 837.489 273.377 846.324 269.502 856.899C265.626 867.475 264.947 879.2 267.567 890.257C270.188 901.314 275.963 911.085 283.997 918.053C292.031 925.022 301.874 928.799 312 928.799C322.126 928.799 331.969 925.022 340.003 918.053C348.037 911.085 353.812 901.314 356.433 890.257C359.053 879.2 358.374 867.475 354.498 856.899C350.623 846.324 343.77 837.489 335 831.765C326.231 826.042 319.377 817.207 315.502 806.632C311.626 796.056 310.947 784.33 313.567 773.273C316.188 762.217 321.963 752.446 329.997 745.478C338.031 738.509 347.874 734.732 358 734.732C368.126 734.732 377.969 738.509 386.003 745.478C394.037 752.446 399.812 762.217 402.433 773.273C405.053 784.33 404.374 796.056 400.498 806.632C396.623 817.207 389.77 826.042 381 831.765C372.231 837.753 365.377 846.995 361.502 858.059C357.626 869.123 356.947 881.39 359.567 892.957C362.188 904.524 367.963 914.745 375.997 922.036C384.031 929.326 393.874 933.277 404 933.277C414.126 933.277 423.969 929.326 432.003 922.036C440.037 914.745 445.812 904.524 448.433 892.957C451.053 881.39 450.374 869.123 446.498 858.059C442.623 846.995 435.77 837.753 427 831.765" stroke="white" stroke-opacity="0.75" stroke-width="5"/>
</svg>
