<svg width="392" height="294" viewBox="0 0 392 294" fill="none" xmlns="http://www.w3.org/2000/svg">
<path fill-rule="evenodd" clip-rule="evenodd" d="M142.451 74.4459C142.181 78.8605 141.911 83.2744 141.641 87.6889C143.378 87.1886 154.431 83.9366 153.748 87.2338C153.258 89.5988 150.151 92.1571 148.568 93.8036C147.111 95.3195 145.61 96.7961 144.071 98.2293C146.899 97.1467 149.751 96.1215 152.623 95.1626C154.796 94.4368 156.985 93.7286 159.212 93.1846C160.039 92.9825 162.27 92.1583 163.051 92.7202C165.103 94.1971 153.97 105.074 152.445 106.607C154.601 105.604 156.81 104.693 159.055 103.911C160.677 103.347 165.686 101.19 167.121 103.032C168.657 105.003 164.852 109.528 163.797 110.963C162.285 113.019 160.647 114.991 158.927 116.877C166.072 123.295 174.469 129.007 183.405 132.557C189.957 135.161 196.393 135.823 203.307 134.395C210.409 132.927 217.221 130.112 223.696 126.894C227.499 125.004 231.252 122.958 234.827 120.661C233.353 118.868 231.922 117.038 230.532 115.179C228.548 112.527 226.109 109.628 224.978 106.47C223.87 103.379 228.025 103.982 230.017 104.15C232.903 104.393 235.781 104.909 238.609 105.526C236.609 104.135 234.646 102.689 232.722 101.196C230.215 99.2495 226.87 97.0491 225.229 94.2492C223.786 91.7873 226.953 92.409 228.418 92.7314C231.91 93.5008 235.308 94.8116 238.638 96.0901C241.077 97.0265 243.501 98.0073 245.902 99.0401C244.412 97.7447 242.971 96.3872 241.588 94.98C239.727 93.0885 237.218 90.7782 236.384 88.1736C234.685 82.8686 246.112 86.8701 248.062 87.6889C247.702 82.1937 247.342 76.6984 246.982 71.2031C231.852 75.2288 216.723 79.2552 201.593 83.2812C199.958 83.7165 197.912 84.664 196.206 84.7145C194.662 84.7608 192.797 84.0652 191.291 83.7778L163.912 78.5466C156.758 77.1796 149.605 75.813 142.451 74.4459Z" fill="#F9E007"/>
<path fill-rule="evenodd" clip-rule="evenodd" d="M305.062 263.457C303.428 264.392 301.515 265.114 299.7 265.598C298.635 265.882 296.874 266.761 295.937 265.956C295.488 265.569 295.385 264.691 295.12 264.182C294.7 263.377 294.103 262.681 293.544 261.969C292.19 260.244 290.78 258.579 289.305 256.955C288.606 256.186 287.329 254.39 286.098 254.508C284.563 254.656 284.6 256.78 284.984 257.866C286.209 261.322 289.917 264.335 292.339 266.939C291.723 267.886 288.341 267.773 287.402 267.552C285.968 267.213 285.823 266.192 285.169 265.024C283.638 262.295 280.533 260.768 277.981 259.164C277.051 258.578 275.073 256.957 273.86 257.365C272.711 257.752 272.761 259.22 273.127 260.178C273.679 261.627 275.252 262.632 276.416 263.548C277.967 264.768 279.385 266.097 280.678 267.591C278.814 267.743 276.958 268.006 275.1 268.159C272.853 268.344 270.98 267.111 268.91 266.412C266.988 265.762 265.072 265.213 263.182 264.465C261.06 263.624 258.836 263.331 256.695 262.594C248.293 259.7 240.06 256.06 231.963 252.392C228.105 250.643 224.327 248.894 220.306 247.526C217.377 246.529 212.773 244.541 212.072 241.051C211.702 239.207 213.05 237.224 213.248 235.382C213.481 233.215 213.298 230.83 212.638 228.751C212.055 226.919 211.091 225.222 210.331 223.464C209.446 221.414 210.239 221.447 211.959 221.214C214.017 220.935 216.42 219.776 218.355 219.021C220.584 218.151 222.794 216.936 224.836 215.686C226.682 214.556 228.289 213.099 229.759 211.517C231.255 209.908 232.223 208 233.669 206.351C239.005 212.914 244.077 219.576 249.747 225.855C252.423 228.819 255.333 231.269 258.631 233.523C260.008 234.464 261.374 235.539 262.874 236.283C264.75 237.214 266.848 237.792 268.776 238.642C276.17 241.899 283.226 245.461 290.124 249.664C293.461 251.697 296.261 254.029 299.199 256.579C300.114 257.374 307.606 262.002 305.062 263.457ZM218.329 209.695C217.134 210.236 215.995 210.939 214.721 211.287C215.082 209.088 217.134 205.771 219.765 206.136C220.77 206.275 221.528 207.056 221.086 208.132C220.685 209.11 219.18 209.31 218.329 209.695ZM135.162 150.056C133.807 150.804 132.545 151.239 131.751 149.634C132.339 149.516 135.012 149.159 135.162 150.056ZM132.907 145.517C131.86 145.2 132.697 144.866 133.057 144.483C133.338 144.185 134.267 143.139 134.592 142.967C136.028 142.206 137.138 145.036 137.824 145.955C136.199 145.81 134.489 145.997 132.907 145.517ZM144.099 155.317C142.115 155.653 142.335 153.171 142.394 151.913C142.813 152.424 145.646 155.055 144.099 155.317ZM150.674 151.029C148.255 151.437 146.657 147.258 147.091 145.43C147.472 143.82 149.347 142.92 150.839 142.683C152.285 142.453 154.299 142.767 154.729 144.435C155.109 145.909 152.286 150.757 150.674 151.029ZM207.933 214.118C206.194 214.652 204.491 214.719 202.744 215.244C200.762 215.839 198.927 215.786 196.94 216.191C196.132 216.355 193.953 217.532 193.164 217.269C192.383 217.009 191.253 214.586 190.805 213.956C194.319 212.495 197.317 210.609 199.634 207.531C201.475 205.083 203.451 201.416 202.292 198.257C200.985 194.695 196.48 193.922 193.476 195.41C192.055 196.113 190.647 196.988 189.475 198.06C188.136 199.286 187.609 200.624 186.741 202.136C185.864 203.665 185.248 202.814 184.371 201.516C183.622 200.406 183.719 199.285 182.783 198.19C182.305 197.632 181.565 197.092 181.316 196.371C181.158 195.913 181.491 195.102 181.191 194.742C180.77 194.236 180.257 194.83 179.903 194.378C179.647 194.05 179.731 193.302 179.466 192.891C179.236 192.658 178.98 192.459 178.698 192.293C178.355 192.124 178.292 191.912 178.51 191.657C178.237 191.152 178.5 190.982 177.916 190.368C177.006 189.41 176.176 188.493 175.527 187.363C175.232 186.846 175.261 186.079 174.893 185.632C174.388 185.017 173.547 185.109 173.113 184.348C172.726 183.67 172.985 182.485 172.347 181.87C172.011 181.774 171.674 181.679 171.338 181.586C171.085 181.341 170.937 181.042 170.895 180.691C170.541 180.145 170.471 179.505 170.023 178.929C169.167 177.827 168.016 176.809 167.26 175.648C166.466 174.427 166.887 174.221 168.267 173.784C169.512 173.39 170.649 173.024 171.803 172.352C177.139 169.247 182.197 161.011 173.728 158.495C170.586 157.561 168.004 155.05 164.519 156.037C163.009 156.465 161.576 157.376 160.449 158.457C159.67 159.204 158.949 161.203 157.993 161.586C156.274 162.274 157.001 160.555 156.513 159.765C156.28 159.387 155.343 158.953 154.995 158.61C154.587 158.207 154.193 157.699 153.91 157.202C153.384 156.278 153.063 155.763 152.305 155.011C152.019 154.727 150.592 153.26 151.879 153.452C151.358 151.863 152.118 151.624 153.169 150.464C154.404 149.102 155.678 147.208 155.685 145.299C155.699 141.634 151.356 139.991 148.628 142.167C148.073 142.61 144.79 146.884 145.462 144.158C145.824 142.688 149.177 138.851 150.732 139.844C148.99 137.305 144.987 143.47 144.053 144.731C143.258 143.267 143.202 142.121 141.886 140.988C140.814 142.706 141.38 140.828 141.144 140.446C140.633 139.622 140.914 140.565 140.637 140.272C140.292 139.907 139.75 139.619 139.383 139.136C138.755 139.988 139.006 139.072 138.813 138.753C138.364 138.009 138.537 137.578 137.766 136.931C137.205 136.46 136.1 135.729 135.344 135.662C134.474 135.585 134.232 135.919 133.345 135.672C132.216 135.358 130.795 134.876 131.342 136.764C131.739 138.136 133.352 138.916 133.705 140.318C134.061 141.729 132.665 143.151 131.989 144.308C131.119 145.792 130.408 145.671 128.834 146.005C127.827 146.219 126.484 146.677 127.347 147.898C127.963 148.77 129.408 148.586 130.222 149.103C131.362 149.827 131.347 151.614 132.803 151.925C134.407 152.267 135.326 150.481 136.679 150.049C137.64 149.743 140.619 149.777 141.376 150.499C142.407 151.483 141.516 153.363 141.776 154.585C142.162 156.397 143.388 156.508 144.939 156.566C146.848 156.637 147.519 158.47 148.546 159.925C150.951 163.33 153.041 166.961 155.504 170.321C156.595 171.809 158.19 173.133 159.083 174.747C160.185 176.741 158.655 177.892 157.334 179.323C155.607 181.194 154.319 183.322 152.822 185.367C151.491 187.183 149.838 186.731 147.712 186.731C148.186 185.754 148.756 185.145 149.922 185.264C148.703 183.776 147.728 185.478 146.938 186.421C145.794 187.784 144.303 188.113 142.833 189.01C142.314 189.327 139.483 191.384 140.343 192.086C140.44 192.165 145.127 189.083 145.66 188.8C145.66 189.938 145.412 191.12 145.571 192.252C145.688 193.082 146.271 193.947 146.147 194.811C145.912 196.439 143.806 197.722 142.903 198.991C142.223 199.946 142.387 200.7 142.041 201.725C141.725 202.66 141.891 202.377 141.104 202.666C139.503 203.255 136.806 202.937 135.356 202.101C134.456 201.581 133.765 200.761 133.034 200.038C132.483 199.492 131.097 198.561 130.944 197.798C130.681 196.484 133.289 194.043 133.806 192.688C135.263 188.864 132.763 185.891 128.873 185.674C130.072 184.749 131.558 185.446 132.822 185.799C130.662 182.805 126.972 185.269 125.139 187.303C123.887 184.138 123.284 180.799 122.519 177.498C121.998 175.25 120.014 171.239 120.899 168.925C121.327 167.806 122.534 167.182 123.369 166.407C124.318 165.525 125.131 164.471 125.824 163.38C127.458 160.81 128.402 157.565 126.152 155.032C126.836 154.919 127.52 154.807 128.203 154.695C127.091 153.649 125.337 154.159 123.893 153.849C122.978 153.652 120.342 153.78 119.731 153.261C118.996 152.638 119.467 149.771 119.493 148.922C119.554 146.939 119.72 145.032 119.939 143.061C120.146 141.199 120.104 139.187 120.489 137.357C120.801 135.873 121.8 135.42 122.952 134.546C125.705 132.454 127.948 129.909 127.008 126.304C127.341 126.251 127.674 126.198 128.007 126.145C126.93 125.366 125.536 125.649 124.338 125.237C125.438 122.141 127.872 116.696 131.823 116.403C131.959 117.788 131.866 119.434 132.8 120.58C133.864 121.885 135.73 122.017 137.171 121.326C138.478 120.699 139.705 119.371 140.308 118.059C140.715 117.17 140.642 115.668 141.357 114.964C142.317 114.019 148.932 114.589 148.729 116.183C148.61 117.12 146.841 118.696 146.347 119.526C145.442 121.046 144.718 122.691 144.385 124.437C143.881 127.088 144.173 130.588 146.866 131.982C149.928 133.567 153.659 131.552 156.171 129.81C157.549 128.854 158.885 127.798 160.145 126.69C160.816 126.1 161.49 125.492 162.081 124.821C162.518 124.326 162.867 123.528 163.404 123.157C164.674 122.281 165.919 123.767 166.993 124.518C168.743 125.741 170.485 126.902 172.364 127.92C176.176 129.985 179.661 132.72 183.032 135.436C186.422 138.169 189.918 140.979 192.664 144.383C191.001 145.406 191.297 145.672 190.557 147.497C190.032 148.792 189.309 149.895 189.225 151.334C189.081 153.818 190.675 155.934 193.096 156.485C194.449 156.792 195.738 156.546 196.992 155.992C197.967 155.562 198.938 154.504 199.956 154.241C201.849 153.752 203.363 157.328 204.424 158.587C209.136 164.181 214.116 169.553 218.553 175.375C219.044 176.02 220.504 177.279 220.622 178.133C220.793 179.359 218.864 180.527 218.064 181.23C217.644 181.599 213.19 185.789 214.685 186.455C215.112 186.645 216.36 184.074 216.672 183.854C217.84 183.031 216.957 184.644 216.887 185.46C216.713 187.487 218.105 188.592 220.063 188.335C222.152 188.061 224.011 186.412 225.304 184.854C226.924 186.731 229.456 189.567 229.924 192.073C230.223 193.674 228.838 197.593 231.424 197.919C231.819 197.969 233.248 196.909 233.514 197.511C233.736 198.013 232.192 198.872 231.969 199.038C231.017 199.749 230.442 200.51 229.674 201.37C228.772 202.38 227.539 203.231 226.525 204.199C225.455 205.219 223.34 207.988 221.93 206.65C221.221 205.978 221.407 205.099 220.271 204.704C219.237 204.345 217.927 204.8 216.966 205.199C215.884 205.647 212.32 207.284 211.925 208.632C211.379 210.491 214.325 208.256 214.848 207.93C214.251 209.446 213.921 211.641 212.4 212.525C211.136 213.26 209.319 213.692 207.933 214.118ZM187.732 202.651C188.743 199.401 194.708 193.605 198.477 195.417C194.084 196.338 190.598 199.345 187.732 202.651ZM189.962 211.96C188.492 211.141 188.571 208.761 188.058 207.369C187.764 206.57 187.175 205.986 187.348 205.1C187.55 204.061 188.876 202.906 189.582 202.156C191.802 199.797 195.71 196.573 199.284 197.114C203.833 197.803 200.749 203.91 199.2 206.013C197.88 207.806 192.792 213.537 189.962 211.96ZM179.35 207.984C174.43 207.656 169.528 207.216 164.675 206.313C162.955 205.993 161.513 206.04 162.498 204.062C162.823 203.409 164.782 199.318 165.225 199.435C165.487 199.505 165.427 202.317 165.504 202.639C165.852 204.087 166.827 205.436 168.472 205.344C171.163 205.194 172.897 201.715 174.314 199.848C175.449 201.374 176.27 203.069 177.411 204.569C177.956 205.287 179.855 206.955 179.35 207.984ZM150.508 188.673C149.683 190.567 148.023 192.369 146.868 194.084C146.216 192.703 145.757 189.531 147.305 188.509C147.891 188.123 151.03 187.476 150.508 188.673ZM167.57 194.313C167.797 193.584 168.049 192.861 168.329 192.15C168.811 193.666 169.057 193.71 167.57 194.313ZM171.781 195.865C172.378 196.877 173.374 197.872 173.218 199.143C173.099 200.106 172.229 201.093 171.607 201.764C170.578 202.875 168.299 205.006 166.808 203.531C165.563 202.3 165.997 198.914 166.576 197.528C167.403 195.548 170.358 193.454 171.781 195.865ZM168.86 193.79C169.202 193.655 168.483 191.445 169.15 191.225C169.732 192.552 170.281 192.911 168.86 193.79ZM159.459 164.06C159.238 163.245 158.729 163.279 158.912 162.272C159.032 161.611 159.557 160.905 159.955 160.382C160.747 159.338 161.793 158.478 162.924 157.827C165.312 156.453 168.59 155.882 170.728 158.033C168.729 158.349 162.603 160.322 162.564 163.055C164.787 162.627 166.534 160.395 168.763 159.691C170.592 159.114 172.576 159.154 174.396 159.764C179.377 161.432 177.306 165.738 174.494 168.535C172.825 170.195 170.824 171.435 168.636 172.291C167.624 172.686 167.002 172.73 166.007 172.531C165.821 172.494 165.603 172.148 165.379 172.074C164.824 171.89 164.985 172.513 164.527 172.233C164.128 171.989 163.277 170.414 163.005 169.963C162.573 169.245 162.372 168.547 161.841 167.892C161.31 167.236 161.052 166.357 160.561 165.764C160.325 165.478 159.678 165.49 159.505 165.212C159.244 164.793 159.576 164.488 159.459 164.06ZM151.809 196.171C152.941 194.204 154.878 192.534 156.377 190.814C156.469 193.64 154.443 195.575 151.809 196.171ZM153.339 197.08C155.677 196.257 156.965 194.288 157.204 191.902C157.507 188.879 159.405 187.292 160.547 184.577C160.986 183.536 161.496 180.111 163.195 181.091C163.777 181.427 164.123 182.692 164.427 183.263C165.161 184.645 165.997 185.985 166.776 187.342C167.41 188.447 168.361 189.558 168.081 190.888C167.837 192.048 167.052 193.284 166.591 194.377C165.505 196.96 164.079 199.339 162.887 201.865C162.406 202.885 161.837 205.297 160.368 205.285C159.206 205.275 159.336 204.005 158.57 203.569C157.605 203.019 156.506 204.066 155.713 204.499C156.627 202.956 158.224 202.083 160.019 202.373C157.869 200.232 156.417 203.121 154.572 203.764C152.823 204.374 149.722 201.499 148.25 200.684C148.813 199.73 149.322 198.564 150.29 197.937C151.209 197.341 152.336 197.432 153.339 197.08ZM134.329 216.646C134.585 215.413 135.309 214.685 135.767 213.565C136.299 214.922 135.054 215.723 134.329 216.646ZM171.478 224.211C171.353 228.363 171.013 232.503 170.891 236.656C170.835 238.571 170.495 240.398 170.27 242.291C170.08 243.892 170.177 245.464 169.169 246.832C167.581 248.988 164.492 249.608 162.094 250.407C160.333 250.993 158.552 251.525 156.813 252.177C155.248 252.763 153.987 253.652 152.499 254.349C151.168 254.973 149.731 255.342 148.406 256.007C147.036 256.694 145.953 257.531 144.545 258.144C142.86 258.876 141.471 260.179 139.973 261.213C138.653 262.124 137.258 262.827 136.123 263.972C135.058 265.047 133.711 265.518 132.505 266.472C131.23 267.481 129.895 268.138 128.487 268.929C125.601 270.551 121.707 273.321 118.234 271.745C119.227 270.476 121.26 269.257 121.415 267.509C121.616 265.232 119.634 266.07 118.486 266.797C116.748 267.898 115.787 269.228 114.463 270.696C112.916 272.412 110.962 271.257 109.069 270.775C110.363 269.61 111.647 268.434 112.939 267.266C114.03 266.281 115.699 265.216 116.363 263.854C116.838 262.879 116.814 261.544 115.669 261.039C114.387 260.473 112.938 261.666 111.989 262.376C109.469 264.261 107.809 266.652 106.155 269.276C105.275 270.671 104.869 270.564 103.25 270.285C101.534 269.989 99.8186 269.674 98.0887 269.467C100.38 267.114 102.941 264.564 104.751 261.81C105.338 260.918 106.103 258.566 104.316 258.35C103.58 258.261 102.114 259.766 101.546 260.172C99.0645 261.946 96.6784 264.183 95.0339 266.773C94.4907 267.628 94.3203 268.579 93.2687 268.649C91.894 268.742 89.3399 267.431 88.0139 267.025C90.5481 263.83 93.0647 260.612 96.0257 257.795C98.7464 255.206 101.46 253.325 104.642 251.339C108.052 249.211 111.229 246.761 114.359 244.246C117.356 241.838 120.487 239.568 123.246 236.881C128.756 231.512 133.664 225.338 137.729 218.809C138.679 217.281 139.575 215.714 140.349 214.088C141.076 212.562 141.41 210.736 142.392 209.348C142.73 208.868 143.208 208.511 143.51 208.011C143.795 207.54 143.699 206.97 144.133 206.553C145.138 205.588 146.968 206.169 147.907 206.846C149.417 207.933 150.639 209.253 152.3 210.163C153.969 211.079 155.776 211.744 157.624 212.194C161.946 213.245 166.23 214.107 170.632 214.746C170.179 216.425 171.292 216.69 171.66 218.202C172.108 220.036 171.534 222.343 171.478 224.211ZM129.869 196.196C128.889 194.741 128.015 193.219 127.052 191.753C126.465 190.861 125.738 189.903 126.24 188.811C127.084 186.971 130.062 186.644 131.679 187.446C135.353 189.269 131.94 194.483 129.869 196.196ZM120.143 162.904C119.804 160.059 120.892 158.04 123.466 156.548C125.301 155.485 126.778 156.938 126.527 158.876C126.146 161.829 122.991 165.114 120.582 166.654C120.425 165.406 120.291 164.154 120.143 162.904ZM119.75 154.763C120.509 154.16 122.543 154.929 123.422 154.982C122.213 156.039 121.003 157.096 119.793 158.153C119.713 157.427 119.05 155.319 119.75 154.763ZM123.832 127.286C129.954 126.49 122.907 133.06 121.133 134.089C121.422 132.691 122.131 127.507 123.832 127.286ZM140.13 115.783C139.308 119.15 132.918 122.824 132.851 117.308C132.826 115.253 133.98 115.42 135.666 115.222C136.627 115.11 140.6 113.858 140.13 115.783ZM118.056 120.998C117.339 122.881 116.763 124.813 116.06 126.698C115.749 127.533 115.382 128.106 114.802 128.768C114.316 129.321 113.738 129.461 113.757 130.335C114.366 130.217 114.842 129.854 115.334 129.505C115.215 131.238 114.602 133.103 114.305 134.83C113.95 136.901 113.654 138.974 113.544 141.074C113.306 145.642 113.304 150.193 113.405 154.763C113.456 157.092 113.479 159.422 113.604 161.748C113.667 162.905 113.738 164.067 113.881 165.217C113.939 165.682 114.276 166.67 114.068 167.105C113.25 168.814 109.628 164.121 108.055 164.81C108.281 163.51 107.76 163.794 106.888 163.155C106.466 162.845 106.191 162.318 105.751 162.042C105.617 161.898 105.471 161.771 105.311 161.659C105.129 161.41 104.937 161.437 104.735 161.738C102.963 160.678 102.505 158.42 101.554 156.902C101.064 156.121 100.592 155.999 100.508 154.919C100.436 153.978 100.577 153.02 100.539 152.075C100.496 151.009 100.433 149.834 100.134 148.802C99.7876 147.604 99.3103 147.702 98.3804 147.063C98.6668 146.938 98.8559 146.727 98.9474 146.432C98.6503 146.485 97.748 146.853 97.5237 146.588C97.0827 146.069 98.1232 145.999 98.3965 145.792C97.2301 145.274 97.4812 144.848 97.9023 143.899C98.0213 143.63 98.135 143.229 98.2365 143.003C98.4578 142.508 98.5852 142.822 98.6583 142.207C98.7276 141.621 98.2082 140.468 98.055 139.844C97.7986 138.797 97.6565 137.892 97.887 136.8C98.0738 135.917 98.5764 135.117 98.6112 134.208C98.6212 133.953 98.2327 133.868 98.2273 133.622C98.2196 133.262 98.5557 133.104 98.643 132.771C98.8662 131.92 98.7655 131.019 99.1472 130.212C99.4906 129.486 100.184 128.547 100.675 127.914C101.015 127.475 101.85 126.98 101.942 126.401C102.002 126.017 101.405 126.062 101.431 125.772C101.467 125.381 101.796 125.254 101.886 124.963C102.134 124.165 102.197 123.397 102.839 122.786C103.648 122.015 103.999 122.338 104.032 121.068C104.048 120.448 103.553 120.352 103.818 119.638C103.963 119.25 104.388 119.021 104.66 118.746C105.469 117.93 106.014 117.206 106.59 116.198C107.099 115.308 107.911 114.79 108.433 114.021C109.112 113.019 108.096 112.522 109.475 112.239C109.279 111.617 109.07 111.114 109.586 110.587C109.911 110.255 110.736 110.458 111.024 110.074C111.354 109.633 110.867 108.587 111.364 108.301C111.768 108.069 112.373 108.786 113.009 108.431C113.493 108.16 114.224 106.666 114.068 106.118C115.32 106.822 115.008 106.337 115.607 105.433C115.741 105.231 116.148 105.186 116.264 104.981C116.495 104.573 116.442 104.156 116.776 103.824C117.331 103.271 118.239 103.413 118.85 103.018C119.355 102.692 119.328 102.34 119.731 102.032C120.075 101.769 120.641 101.719 120.975 101.446C121.631 100.912 121.637 100.349 122.457 99.8888C123.428 99.3444 124.288 98.8812 125.172 98.1596C125.748 97.6895 126.294 96.8558 126.968 96.5453C127.9 96.1162 128.626 96.0859 129.537 95.4734C130.196 95.0309 130.819 94.3005 131.465 93.9273C131.953 93.6463 132.296 93.7068 132.91 93.5326C134.017 93.2187 134.287 92.1759 135.189 91.7514C135.809 91.46 136.711 91.7269 137.392 91.5737C139.51 91.0983 141.602 90.0727 143.727 89.5046C146.321 88.8117 148.934 88.2046 151.548 87.5917C149.146 90.8475 146.086 93.7852 142.983 96.3711C141.964 97.2198 136.383 101.09 139.392 102.742C140.599 103.405 143.223 101.263 144.198 100.739C146.161 99.6848 148.195 98.8407 150.251 97.9878C153.576 96.6085 157.907 94.1554 161.602 94.353C159.353 97.1126 156.545 99.328 153.972 101.766C151.607 104.006 148.045 106.108 149.16 109.775C145.839 108.93 142.856 107.931 139.403 108.153C137.856 108.252 136.309 108.066 134.769 108.282C133.095 108.519 131.519 109.079 129.91 109.571C128.637 109.959 127.23 109.99 126.059 110.637C125.494 110.949 124.794 111.396 124.285 111.784C123.607 112.301 123.453 112.643 122.921 113.325C121.022 115.756 119.185 118.036 118.056 120.998ZM107.669 167.019C107.566 166.598 107.471 166.215 107.352 165.734C108.409 166.384 108.409 166.384 107.669 167.019ZM99.6812 153.616C99.5511 153.796 99.0036 153.854 98.8448 153.698C98.6469 153.505 99.1671 152.752 99.2506 152.592C99.4569 152.75 99.9316 153.269 99.6812 153.616ZM97.4184 148.738C97.5581 148.223 97.6986 147.71 97.8384 147.196C98.0102 147.672 98.7851 148.199 98.8023 148.653C98.813 148.953 97.5715 148.804 97.4184 148.738ZM97.8675 149.442C99.0802 150.241 99.2073 151.183 99.2433 152.561C97.792 152.08 98.0003 150.675 97.8675 149.442ZM118.959 95.0604C118.836 95.3915 118.317 96.424 117.936 95.702C117.814 95.4708 118.705 95.1553 118.959 95.0604ZM118.611 93.9349C118.91 93.6646 119.514 94.0008 119.854 93.7826C120.091 93.6294 120.012 93.474 120.124 93.3833C120.146 93.3653 120.469 92.7111 120.602 92.5625C120.836 92.3018 121.346 92.1391 121.63 91.9033C122.424 91.2453 122.872 90.3794 123.372 89.4989C123.968 88.4477 124.159 88.3259 125.12 87.8444C125.783 87.5128 126.297 87.1067 126.836 86.5424C127.458 85.8928 127.413 85.4277 127.923 84.7176C128.175 84.3673 128.538 84.3236 128.832 84.0411C129.184 83.7031 129.363 83.2299 129.688 82.8889C129.829 82.7411 130.281 82.7415 130.366 82.6152C130.474 82.4551 130.559 81.8155 130.661 81.6975C130.855 81.9602 131.05 82.2228 131.244 82.4854C132.01 81.1375 132.569 80.0239 133.851 79.127C135.197 78.1849 136.359 76.8067 137.75 75.9634C138.063 75.7739 138.7 75.6943 138.939 75.4148C139.343 74.9421 138.993 74.5217 139.287 74.1202C139.622 73.6654 140.269 74.0336 140.694 73.8376C141.232 73.5892 141.386 72.8641 142.078 72.9438C139.802 75.6376 139.83 79.8287 139.709 83.1932C139.657 84.6429 140.57 85.3737 139.222 86.4375C138.075 87.3425 136.459 87.0738 135.103 87.6694C133.401 88.4174 131.58 88.8152 129.844 89.4671C128.047 90.1413 126.603 91.3215 124.874 92.1024C123.349 92.7907 122.308 93.7692 120.914 94.619C120.396 94.9348 119.593 95.3934 118.975 95.016C118.588 94.7794 118.105 94.3908 118.611 93.9349ZM144.326 71.349C144.425 70.9665 146.368 69.9605 146.846 69.6324C147.564 69.139 148.626 67.9347 149.427 68.4132C149.704 67.3015 150.787 66.0646 151.744 65.8292C152.806 65.5674 154.626 64.6574 155.671 63.8627C155.976 63.6307 156.076 63.2915 156.435 63.0741C157.06 62.6947 157.68 62.9018 158.282 62.385C158.374 62.3062 159.207 60.9307 159.24 60.9441C159.282 61.0915 159.321 61.2408 159.355 61.3909C159.987 61.0402 160.55 60.7615 160.944 60.3144C161.033 60.213 160.454 59.9492 160.637 59.7482C160.861 59.5021 161.361 59.7773 161.587 59.5438C160.883 63.0366 161.407 67.5323 164.951 69.3032C160.737 69.7584 156.621 68.4917 152.355 69.2695C150.313 69.6424 148.237 70.2537 146.379 71.1932C145.241 71.7689 143.786 73.8304 142.653 72.8293C143.102 72.2298 143.789 71.8573 144.326 71.349ZM164.773 61.3005C166.349 59.3731 168.739 58.6105 171.146 59.3007C173.964 60.1088 172.776 62.078 172.35 64.2646C171.537 63.0722 169.775 61.8897 168.275 61.8537C166.148 61.8032 166.952 63.5752 168.229 64.2103C169.39 64.7868 171.382 64.9476 172.213 65.9969C173.022 67.0174 172.712 68.6869 172.842 69.8908C172.213 69.7971 171.584 69.7037 170.955 69.6102C171.483 66.8008 169.16 66.6649 166.994 65.8725C164.805 65.0728 162.98 63.494 164.773 61.3005ZM171.831 54.3823V56.9897C170.956 56.4901 170.079 55.9905 169.202 55.491C170.079 55.1215 170.956 54.7518 171.831 54.3823ZM178.876 75.2158C181.801 76.009 184.707 76.8477 187.52 77.9418C188.542 78.3391 189.661 78.4796 190.662 78.9283C191.615 79.3551 191.758 79.3107 191.419 80.146C190.469 82.4865 188.219 82.0823 186.248 81.7243C183.163 81.1639 180.141 80.3868 177.094 79.6556C174.116 78.9417 171.075 78.4735 168.142 77.5781C165.132 76.6601 162.199 75.7904 159.103 75.184C158.199 75.0071 151.051 74.3514 151.106 73.6045C155.607 73.0196 160.242 73.5957 164.764 73.6566C169.463 73.7197 174.317 73.9804 178.876 75.2158ZM174.903 66.1626C174.959 64.5533 174.982 62.939 175.182 61.3396C176.521 62.9926 177.73 63.4872 179.418 61.9379C181.034 60.4545 181.395 59.6812 183.444 61.0758C185.22 62.2851 186.901 62.2292 188.788 61.1708C189.938 60.5249 191.788 57.8866 192.998 58.4298C193.574 58.6886 193.996 59.7321 194.578 60.1161C195.309 60.5969 196.431 60.9307 197.282 61.1175C199.293 61.5578 200.49 60.265 201.752 58.8819C203.582 56.8767 203.528 58.0413 205.225 59.432C207.117 60.9828 208.699 60.2252 210.412 58.9014C211.456 61.9597 211.846 65.2994 212.142 68.5054C212.241 69.588 212.612 71.125 211.64 71.8907C210.955 72.4304 209.501 72.4515 208.675 72.7497C205.725 73.8162 202.891 75.3295 200.424 77.2665C199.463 78.021 198.625 78.9451 197.311 78.7732C196.06 78.6094 194.843 77.5616 193.837 76.8695C192.744 76.1196 191.639 75.2674 190.362 74.849C189.614 74.604 188.416 74.6928 187.762 74.2438C186.546 73.4085 187.977 71.2181 187.674 69.7477C187.445 68.6314 186.802 66.3039 185.265 66.9581C182.977 67.9316 184.308 71.7322 185.567 72.9185C182.993 72.4614 180.143 71.7938 177.661 70.9459C175.743 70.2905 174.835 68.1257 174.903 66.1626ZM218.072 74.0007C223.356 72.5169 228.3 71.5167 233.798 71.2464C236.233 71.1266 238.589 71.2024 240.996 71.2242C242.381 71.2368 243.437 70.1194 242.331 68.8339C240.799 67.0542 236.125 67.7318 234.055 67.6518C228.505 67.4374 223.416 68.0683 218.159 69.8977C218.715 68.8737 220.05 68.7409 220.966 68.2114C222.088 67.5614 222.852 66.4907 223.331 65.3025C224.579 62.2124 223.323 59.3003 222.018 56.4771C224.582 57.1669 227.234 58.6775 229.812 59.0611C230.353 59.1415 230.7 59.0898 231.178 59.2866C231.471 59.4071 231.564 59.8244 231.928 59.9155C232.103 59.9599 232.525 59.5626 232.724 59.6188C233.509 59.8409 232.888 59.8998 233.385 60.221C233.779 60.4759 233.747 60.8044 234.47 60.6838C234.79 60.631 235.138 60.1352 235.306 60.1218C235.521 60.1042 235.472 59.8424 235.801 59.919C236.4 60.0579 236.347 60.8293 236.546 61.209C236.759 61.6133 236.457 62.1507 237.103 62.3716C237.586 62.5374 237.707 62.0271 238.118 62.0639C238.367 62.0861 238.884 62.4455 239.105 62.6641C239.814 63.3692 240.786 64.1475 241.739 64.6065C241.646 64.5119 242.189 64.2849 242.059 64.2317C241.972 64.1961 242.543 64.3339 242.534 64.332C243.085 64.4572 243.376 65.3028 243.654 65.6114C244.166 66.1764 244.962 66.7732 245.679 67.0228C246.92 67.4542 246.882 66.9382 247.335 68.4128C248.217 67.0259 248.555 69.3484 249.649 69.6041C250.215 69.7366 250.15 69.4939 250.664 69.7905C251.018 69.9938 251.253 70.6163 251.52 70.9168C251.634 70.4834 251.748 70.0497 251.862 69.6171C252.65 71.1097 254.351 73.4767 256.216 73.0487C256.216 73.456 256.048 73.9429 256.363 74.2905C256.583 74.5336 256.94 74.2576 257.112 74.3988C257.263 74.5221 257.623 75.0129 257.738 75.0936C257.965 75.2529 258.377 75.3693 258.574 75.5278C258.748 75.6675 258.834 76.3347 259.027 76.5755C259.389 77.0288 260.015 77.1187 260.311 77.6623C260.379 77.1264 260.446 76.5901 260.513 76.0541C261.101 76.5081 261.151 76.8607 261.295 77.5245C261.501 78.4701 261.228 78.2484 261.881 78.6477C262.522 79.0401 262.856 78.996 263.443 79.6771C264.019 80.3447 264.025 80.7562 264.856 80.0606C265.01 80.5751 265.06 81.2405 265.473 81.6348C265.784 81.933 267.075 81.9456 267.198 82.6492C264.773 80.6035 266.369 83.7108 267.2 82.6546C267.375 83.785 268.202 84.1502 269.147 84.9557C270.029 85.7056 270.173 85.6512 270.474 86.9118C270.467 86.8843 270.917 87.163 270.949 87.2189C270.091 87.3414 271.422 88.3007 271.647 88.4764C271.811 88.6042 272.025 88.2984 272.298 88.5055C272.609 88.7428 272.864 89.2818 273.118 89.6068C273.806 90.4881 274.315 91.2453 275.039 91.9615C275.821 92.7348 276.201 93.7125 276.951 94.6163C277.784 95.6201 278.234 96.7742 278.93 97.8637C279.592 98.9 280.471 99.7318 281.237 100.681C282.458 102.191 282.874 105.517 285.151 105.604C285.018 105.742 285.204 106.773 285.225 106.963C285.333 107.899 285.261 108.8 285.815 109.648C285.942 108.68 286.448 109.053 286.888 109.561C287.619 110.407 286.977 110.194 287.016 111.05C287.062 112.089 287.18 111.286 287.576 112.192C287.886 112.902 288.055 113.363 288.221 114.151C286.935 114.253 286.346 113.202 285.871 112.184C285.672 111.758 285.603 111.057 285.251 110.724C284.877 110.37 284.362 110.342 283.977 109.946C283.239 109.187 282.919 108.002 282.049 107.262C281.065 106.427 280.847 106.032 280.034 105.033C279.135 103.929 277.893 103.153 276.95 102.084C276.005 101.014 276.082 101.598 274.895 101.211C273.633 100.798 271.592 96.8298 270.002 98.3583C270.065 97.3584 268.567 96.4178 267.811 96.0557C267.483 95.8991 267.102 96.0408 266.775 95.8061C266.42 95.5515 266.395 95.0608 266.036 94.7553C266.037 94.7557 265.487 94.8885 265.376 94.8322C265.149 94.7174 265.147 94.3108 264.947 94.1772C264.393 93.8067 263.732 93.4185 263.144 93.1031C261.715 92.3363 260.452 91.3923 259.072 90.4693C257.891 89.6784 256.461 88.2502 255.095 87.8333C253.902 87.4692 253.152 87.6549 252.175 86.9256C251.643 86.5286 251.799 86.395 250.945 86.1481C250.13 85.9131 249.673 86.034 249.242 85.1708C248.487 83.6602 248.964 80.7118 248.818 79.0179C248.663 77.2202 248.479 75.3777 248.01 73.6298C247.456 71.5637 246.723 70.4838 244.507 70.9704C240.116 71.9354 235.779 72.8538 231.368 73.701C222.579 75.3896 213.94 78.1447 205.344 80.5908C204.689 80.7776 201.037 81.6137 201.783 79.7249C202.126 78.8536 204.439 78.529 205.212 78.2553C209.461 76.7516 213.729 75.2196 218.072 74.0007ZM216.595 70.1561C215.953 70.4007 215.312 70.6454 214.67 70.8904V69.1053C215.312 69.4556 215.953 69.8055 216.595 70.1561ZM213.927 60.7175C214.485 61.1734 215.619 60.0763 216.093 59.8539C216.904 59.4745 217.935 59.1487 218.84 59.2265C220.509 59.3712 221.73 61.0146 221.424 62.6806C220.907 65.4996 216.89 66.8326 214.676 67.9347C214.605 66.9355 214.282 65.7346 214.982 64.8706C215.59 64.1203 216.77 64.1747 217.331 63.3765C218.743 61.371 214.916 61.1891 214.06 62.7839C213.723 61.7645 213.385 60.7454 213.048 59.7264C213.862 59.5913 213.504 60.3722 213.927 60.7175ZM217.878 55.1996C217.081 55.7149 216.284 56.2302 215.487 56.7454C215.092 54.9619 216.439 54.7273 217.878 55.1996ZM290.493 117.273C289.449 117.771 289.188 116.582 288.438 116.53C289.325 115.985 289.325 115.985 290.493 117.273ZM294.737 143.245C294.867 144.954 294.766 146.683 294.993 148.386C295.167 149.682 295.692 150.887 295.747 152.197C295.87 155.066 294.901 157.988 292.945 160.091C291.094 162.081 288.446 163.793 285.947 164.629C284.822 165.006 283.646 165.841 282.553 166.149C281.343 166.491 280.194 165.748 279.196 167.081C278.531 161.361 279.017 155.384 278.965 149.628C278.912 143.86 278.974 138.089 277.998 132.383C277.129 127.301 275.416 121.584 272.258 117.427C270.975 115.738 269.396 114.356 267.731 113.061C266.866 112.39 266.002 111.671 265.039 111.141C263.558 110.325 262.296 110.438 260.685 110.205C258.379 109.872 256.236 109.591 253.921 110.24C251.767 110.845 249.394 111.533 247.464 112.584C245.542 113.63 243.309 114.062 241.314 114.999C239.956 115.637 237.137 117.767 235.63 117.383C234.172 117.012 232.014 114.537 231.083 113.429C229.893 112.012 228.909 110.371 227.854 108.847C227.483 108.311 226.728 107.484 226.631 106.797C226.464 105.605 226.942 105.994 228.081 106.128C231.011 106.471 233.766 107.015 236.573 107.937C237.971 108.396 240.703 110.252 242.1 109.139C244.234 107.441 240.992 104.522 239.805 103.542C237.782 101.871 235.43 100.63 233.273 99.1454C230.982 97.5678 227.953 95.888 226.478 93.4587C230.784 94.7296 235.085 96.1855 239.265 97.8239C241.177 98.5735 243.067 99.3655 244.863 100.362C245.872 100.922 247.911 102.436 249.125 101.711C251.767 100.135 245.701 95.5557 244.826 94.6202C243.466 93.1662 242.133 91.7261 240.639 90.4069C239.63 89.5169 238.046 88.891 237.577 87.5783C239.251 88.1843 240.604 89.371 242.171 90.1772C242.992 90.5999 243.74 90.8429 244.647 90.9723C245.613 91.1105 245.728 91.2644 246.489 91.6484C247.082 91.9481 247.691 92.3482 248.356 92.5518C248.83 92.6973 249.659 92.7222 250.073 92.9913C250.285 93.2933 250.504 93.5908 250.73 93.8829C250.983 93.9571 251.232 94.0425 251.477 94.1401C251.845 94.4678 252.063 94.9199 252.42 95.2579C255.016 97.7125 258.488 99.4692 261.398 101.526C264.151 103.471 267.073 105.231 269.717 107.354C272.76 109.798 275.919 112.424 278.507 115.355C279.969 117.011 281.172 118.889 282.401 120.72C283.29 122.046 284.584 123.146 285.353 124.513C287.03 127.494 288.421 130.716 290.226 133.649C292.065 136.638 294.461 139.607 294.737 143.245ZM270.002 160.54C270.503 158.472 273.332 156.056 275.14 155.144C274.229 157.398 271.801 158.935 270.002 160.54ZM274.667 167.757C273.125 170.956 266.344 171.322 267.264 166.588C267.715 164.268 269.628 162.845 271.27 161.327C272.03 160.625 273.889 158.116 275.064 158.52C275.009 160.324 274.903 162.136 274.907 163.941C274.909 165.145 275.213 166.625 274.667 167.757ZM272.707 130.883C273.333 132.288 273.956 133.458 272.795 134.715C272.271 135.282 270.565 136.524 269.793 136.248C267.314 135.364 272.039 131.515 272.707 130.883ZM257.717 118.381C258.313 118.348 258.893 118.437 259.483 118.4C260.07 118.364 260.132 118.26 260.677 118.334C260.735 118.418 260.792 118.501 260.85 118.585C260.924 119.145 261.219 119.206 261.733 118.768C262.448 118.927 262.913 119.033 263.597 119.42C261.751 120.75 259.505 122.297 257.242 122.744C253.666 123.45 254.654 118.549 257.717 118.381ZM202.894 148.306C202.523 149.052 201.457 147.188 201.192 146.841C201.685 146.839 203.269 147.553 202.894 148.306ZM231.628 128.67C234.406 127.049 237.706 125.625 240.69 124.418C241.215 126.946 238.656 130.209 237.079 131.939C235.805 133.339 234.268 134.789 232.54 135.594C230.672 136.465 228.63 136.083 228.72 133.64C228.754 132.748 228.957 131.311 229.32 130.495C229.789 129.443 230.675 129.225 231.628 128.67ZM194.069 82.6825C194.483 82.6584 198.975 82.0777 198.951 82.6366C198.881 84.3168 194.52 82.9976 194.069 82.6825ZM162.303 115.121C164.676 112.194 168.506 109.034 168.562 104.942C168.645 98.9214 161.963 101.925 158.604 102.176C160.38 100.43 169.306 93.1084 164.026 90.508C162.509 89.7603 160.352 90.4908 158.829 90.8824C156.127 91.5772 153.615 92.7807 150.96 93.6179C152.857 91.599 156.134 89.3044 156.027 86.2469C155.896 82.5248 152.84 83.4248 150.199 83.9707C149.183 84.1809 144.648 85.985 143.796 84.76C143.484 84.3114 143.989 83.7414 144.096 83.3417C144.285 82.6351 144.226 82.3881 144.233 81.6662C144.246 80.2096 145.214 78.3387 144.424 76.984C144.244 77.2918 144.089 77.6122 143.961 77.9448C143.7 77.1566 143.875 76.3202 143.615 75.532C150.211 77.2186 156.92 78.142 163.557 79.5817C166.917 80.3106 170.079 81.5655 173.485 82.1305C176.92 82.6998 180.295 83.5714 183.736 84.1146C186.876 84.6096 189.884 85.4346 192.993 86.067C196.024 86.6837 199.133 85.3324 202.091 84.6479C208.717 83.1155 215.341 81.5456 221.976 80.0587C229.632 78.3422 237.597 76.8745 244.925 74.0118C245.067 77.8273 245.372 81.6355 245.839 85.425C242.602 83.8949 237.799 81.8997 234.527 84.6376C233.218 85.7328 232.814 87.6243 233.332 89.2324C233.895 90.9834 235.621 91.7965 236.759 93.1146C233.294 92.226 224.355 85.9632 222.764 92.2938C221.64 96.765 227.122 99.653 229.802 102.17C227.141 101.649 223.576 99.5205 222.013 102.941C220.663 105.897 222.29 109.115 223.956 111.553C224.859 112.875 225.875 114.118 226.835 115.398C227.342 116.075 227.838 116.762 228.371 117.419C228.906 118.079 229.916 118.769 230.291 119.478C231.046 120.909 229.522 120.996 228.338 121.513C226.858 122.158 225.588 123.242 224.236 124.106C221.138 126.083 218.431 127.92 214.771 128.552C211.003 129.202 207.374 129.882 203.655 130.789C199.948 131.694 196.922 132.563 193.133 131.394C191.405 130.861 189.998 130.387 188.165 130.487C186.24 130.593 185.115 130.493 183.532 129.301C176.723 124.172 169.331 119.963 162.303 115.121ZM150.026 109.972C152.658 108.652 155.307 107.325 158.026 106.19C160.276 105.25 163.693 104.156 166.157 104.568C165.462 106.352 164.195 107.815 162.836 109.129C161.634 110.291 160.132 112.044 158.678 112.855C157.357 113.59 155.82 112.425 154.517 111.936C153.086 111.4 151.116 111.15 150.026 109.972ZM150.688 116.634C151.999 116.089 154.818 117.918 156.011 118.394C158.355 119.328 160.712 120.305 162.778 121.779C160.255 124.695 157.398 127.36 154.003 129.233C151.77 130.465 148.006 131.878 145.899 129.641C143.252 126.83 146.434 121.102 148.308 118.693C148.37 119.105 148.432 119.517 148.494 119.929C149.092 118.972 149.549 117.108 150.688 116.634ZM198.836 141.586C197.2 141.93 196.644 141.619 195.564 140.364C194.833 139.516 194.116 138.636 193.293 137.873C192.452 137.095 190.378 135.218 193.021 136.299C195.431 137.283 197.495 137.776 200.147 137.39C203.178 136.949 206.004 135.667 208.993 135.019C207.355 136.452 205.728 137.901 204.086 139.33C202.352 140.841 201.04 141.122 198.836 141.586ZM199.21 153.117C195.624 155.816 188.406 155.524 190.835 149.587C191.204 148.685 191.721 147.836 192.318 147.068C192.517 146.811 192.872 146.28 193.156 146.108C193.949 145.626 193.729 145.568 194.492 146.37C195.149 147.062 200.29 152.715 199.21 153.117ZM198.147 142.801C198.476 142.694 199.859 141.892 200.175 142.336C200.494 142.785 197.781 144.34 198.147 142.801ZM224.251 183.954C223.445 185.884 216.992 188.676 218.194 184.788C218.727 183.065 219.229 181.761 221.237 181.63C222.396 181.555 224.961 182.256 224.251 183.954ZM235.825 157.812C236.887 156.266 240.395 154.174 241.893 156.481C242.614 157.592 240.863 158.161 239.804 157.876C239.236 157.721 238.771 157.382 238.153 157.356C237.358 157.324 236.581 157.947 235.825 157.812ZM238.641 159.348C237.919 160.079 233.563 163.744 232.857 163.179C234.28 161.145 235.913 158.874 238.641 159.348ZM231.526 196.441C230.014 196.527 230.769 194.247 230.915 193.336C231.281 193.971 233.207 196.346 231.526 196.441ZM235.37 192.355C234.881 191.485 233.562 190.189 233.86 189.068C234.088 188.212 236.146 187.06 237.008 187.551C238.153 188.204 236.493 192.5 235.37 192.355ZM271.263 183.224C270.616 185.454 269.946 184.879 267.917 185.311C265.881 185.744 264.474 187.472 262.682 188.4C263.304 187.084 263.69 185.48 264.732 184.412C264.974 184.165 266.45 183.678 265.609 183.107C264.873 182.608 263.816 184.228 263.5 184.67C261.947 186.843 260.862 189.497 259.966 191.998C259.525 193.226 259.172 194.477 258.963 195.767C258.777 196.916 258.978 198.119 258.788 199.238C258.483 201.041 256.034 201.05 254.561 201.515C253.228 201.936 251.901 202.392 250.517 202.619C249.317 202.816 248.072 202.457 246.91 202.694C245.651 202.95 245.085 203.696 243.654 203.528C242.488 203.39 241.396 202.854 240.213 202.8C239.107 202.75 238.003 203.133 236.903 202.821C235.793 202.507 235.846 202.385 236.099 201.294C236.256 201.589 236.415 201.883 236.573 202.177C237.015 201.83 237.321 200.772 237.592 200.275C238.013 199.506 238.356 199.24 238.2 198.282C237.97 196.866 236.694 195.859 236.405 194.513C236.103 193.108 237.141 191.959 237.755 190.787C238.594 189.182 238.583 187.991 237.88 186.331C238.41 186.471 238.94 186.611 239.471 186.752C238.744 185.174 236.279 185.813 235.043 186.281C234.421 186.515 233.436 187.439 232.768 187.415C231.849 187.383 231.37 186.175 230.976 185.51C229.833 183.586 228.529 181.686 227.177 179.899C226.806 179.407 226.319 179.092 226.447 178.532C226.556 178.056 227.622 177.383 227.967 177.09C229.264 175.994 230.914 175.386 232.131 174.233C233.971 172.489 236.093 171.24 237.974 169.531C239.934 167.751 241.954 166.116 243.996 164.433C246.065 162.729 247.856 160.722 249.91 159C250.442 159.965 251.473 163.417 252.652 163.685C254.027 163.996 253.986 162.37 253.918 161.391C253.82 159.996 253.045 158.641 252.959 157.31C252.867 155.886 254.237 155.25 255.27 154.426C256.867 153.154 260.402 150.256 258.502 147.871C256.865 145.817 251.543 149.755 250.077 150.94C248.83 151.946 247.867 152.857 246.463 153.651C245.476 154.208 243.82 156.354 242.651 156.156C241.259 155.921 240.715 154.401 239.013 154.451C237.349 154.5 235.936 155.698 234.905 156.901C232.573 159.62 231.771 163.258 229.646 166.093C228.598 167.49 227.239 168.644 226.103 169.967C224.855 171.418 224.59 173.09 223.359 174.51C219.837 169.818 216 165.376 212.286 160.838C210.431 158.572 208.615 156.279 206.8 153.981C206.12 153.12 205.352 152.312 204.73 151.407C203.876 150.168 204.03 149.173 203.695 147.792C203.547 147.179 202.851 146.446 203.037 145.86C203.288 145.074 205.046 144.457 205.68 144.135C208.269 142.821 210.617 141.178 213.032 139.572C217.502 136.599 222.025 133.812 226.78 131.272C226.698 132.366 225.986 133.5 226.464 134.598C226.687 133.966 227.039 131.153 227.882 131.033C227.721 131.055 227.853 134.64 227.984 135.152C228.373 136.679 229.502 137.723 231.117 137.713C234.194 137.693 236.951 134.346 238.659 132.129C239.815 130.628 240.926 128.883 241.333 127.004C241.699 125.317 241.296 124.144 243.049 123.287C246.647 121.53 250.274 120.099 254.122 119.167C253.949 120.825 253.469 122.866 254.976 124.059C256.639 125.375 258.816 124.202 260.382 123.331C261.934 122.469 264.326 120.099 266.148 120.788C267.94 121.465 269.188 123.712 270.191 125.205C271.075 126.521 272.038 127.469 271.014 128.936C269.866 130.579 269.119 132.183 268.2 133.968C267.846 134.655 267.509 135.102 267.759 135.805C267.84 136.034 268.761 137.392 269.011 137.587C270.608 138.829 272.763 136.466 273.903 135.569C274.305 139.432 274.395 143.278 274.557 147.152C274.676 149.99 275.775 152.784 273.446 154.859C271.117 156.933 269.174 159.062 267.755 161.87C266.997 163.37 266.317 164.91 265.497 166.379C264.949 167.361 263.794 168.8 264.501 169.955C265.247 169.247 265.469 168.17 266.091 167.372C266.463 169.029 266.838 170.867 268.591 171.57C270.607 172.377 272.611 170.979 274.398 170.202C273.757 174.631 272.508 178.936 271.263 183.224ZM269.202 188.316C267.818 191.274 266.568 194.84 264.012 197.019C263.451 197.497 261.067 199.364 260.159 199.051C259.389 198.785 259.813 197.229 259.947 196.562C260.628 193.178 261.806 191.048 264.551 188.888C265.687 187.994 267.145 186.852 268.61 186.631C270.187 186.394 269.733 187.18 269.202 188.316ZM308.239 258.526C304.651 253.647 299.579 249.855 294.786 246.189C292.615 244.529 290.223 243.284 288.03 241.623C285.55 239.745 283.032 237.934 280.254 236.519C274.988 233.835 269.243 231.965 264.273 228.792C261.85 227.244 259.198 225.749 256.92 224.012C255.919 223.248 255.035 222.272 254.13 221.398C253.29 220.586 251.486 219.407 251.152 218.218C252.55 217.989 253.345 216.632 254.594 216.494C255.005 216.448 257.581 217.13 257.229 215.88C258.163 215.857 258.272 215.843 259.055 215.638C259.38 215.553 259.764 215.686 260.092 215.57C260.594 215.393 260.935 214.881 261.442 214.685C261.802 214.546 263.139 214.701 263.342 214.528C263.896 214.055 263.308 214.097 262.978 213.506C264.054 213.478 264.792 214.022 265.871 213.444C266.2 213.268 266.478 212.862 266.796 212.652C267.36 212.279 267.564 212.858 267.951 212.083C268.313 213.151 268.303 212.856 269.175 212.541C270.044 212.228 270.671 212.002 271.66 211.924C274.024 211.737 276.396 212.024 278.748 211.856C279.608 211.794 280.344 211.599 281.199 211.712C281.952 211.811 281.725 212.334 282.351 211.629C282.496 211.465 282.026 211.016 282.251 210.781C282.351 210.677 282.675 210.75 282.798 210.696C283.898 210.216 283.902 210.887 284.098 211.761C284.743 211.61 285.401 211.473 285.961 211.095C285.678 210.842 285.204 210.563 285.478 210.102C286.408 210.454 287.016 210.292 286.551 211.313C287.487 211.622 287.662 211.219 288.503 211.13C289 211.078 289.694 211.387 290.108 210.99C290.561 210.556 289.847 210.085 290.678 209.712C290.849 209.799 290.975 209.93 291.057 210.105C291.506 210.241 291.425 210.417 290.815 210.635C292.449 211.482 292.065 210.535 292.752 209.533C292.91 209.302 293.62 208.585 293.943 208.932C294.434 209.457 293.432 209.624 293.647 210.146C294.019 211.051 295.317 209.891 295.716 209.433C296.017 209.086 296.14 208.422 296.465 208.163C296.917 207.803 297.566 208.359 298.131 208.259C300.713 207.807 303.151 204.335 301.206 202.011C300.684 201.387 300.241 201.511 299.618 201.117C299.003 200.727 298.657 200.053 298.163 199.497C297.035 198.226 295.654 197.275 294.076 196.667C290.418 195.255 286.475 194.226 282.633 193.468C280.854 193.117 278.96 192.581 277.139 192.585C276.065 192.586 274.449 193.421 273.446 193.021C271.495 192.244 274.359 188.265 274.831 186.98C276.219 183.204 277.267 179.178 277.954 175.214C278.088 174.438 278.036 173.433 278.316 172.694C278.637 171.845 278.705 171.964 279.392 171.895C280.632 171.77 281.988 172.42 283.28 172.196C284.711 171.947 286.258 172.062 287.703 171.619C288.368 171.416 288.984 171.195 289.421 170.634C289.559 170.459 289.405 170.306 289.492 170.183C289.519 170.144 290.013 169.611 290.029 169.58C290.024 169.305 290.048 169.031 290.101 168.76C290.602 169.176 290.355 170.048 291.199 170.068C291.35 169.138 291.351 168.951 291.961 168.428C291.915 168.468 292.421 168.038 292.356 168.084C292.387 167.918 292.448 167.763 292.538 167.62C292.824 167.483 293.125 167.409 293.442 167.401C294.102 166.723 293.828 166.361 293.828 165.448C294.36 165.725 294.892 166.001 295.425 166.278C295.553 163.573 297.2 162.092 298.295 159.9C298.761 158.966 299.236 158.236 299.347 157.109C299.412 156.459 299.244 155.885 299.513 155.273C299.757 154.717 300.303 154.418 300.531 153.812C300.981 152.621 300.646 151.1 300.67 149.863C300.705 148.147 300.876 146.437 300.932 144.722C301.042 141.355 300.703 137.895 300.2 134.567C299.959 132.975 299.556 131.431 299.239 129.856C298.979 128.561 298.356 127.347 298.133 126.143C298.041 125.643 298.184 125.193 298.033 124.64C297.834 123.913 297.501 123.197 297.254 122.483C296.677 120.814 296.107 119.147 295.457 117.504C294.199 114.32 292.726 111.232 291.327 108.109C289.981 105.105 288.866 102.009 287.123 99.2047C285.406 96.4427 283.557 93.7271 281.665 91.0834C279.693 88.3298 277.201 85.964 275.289 83.1852C271.7 77.9678 266.693 73.6684 261.455 70.1182C250.646 62.792 238.966 55.4772 226.005 52.9652C224.052 52.5869 222.073 52.3243 220.083 52.2753C218.847 52.2447 216.801 52.8419 215.631 52.4239C214.321 51.9557 214.441 50.4845 214.113 49.3304C213.692 47.847 212.741 46.875 211.66 45.8261C210.523 44.7224 209.492 43.4328 208.074 42.6821C206.637 41.9218 204.942 41.6374 203.35 41.4077C201.928 41.2021 199.804 41.3939 198.506 40.7745C197.323 40.2102 197.907 39.6226 199.015 40.1057C199.096 39.6173 199.161 39.3018 199.474 38.9244C199.631 38.7345 200.374 38.4684 200.392 38.2916C200.413 38.0842 199.79 37.4938 199.701 37.2264C199.51 36.6508 199.618 35.8536 199.846 35.3133C200.962 36.3059 201.286 36.7455 202.533 35.7967C203.059 35.3961 203.221 35.2194 203.83 35.0173C203.996 34.9624 204.367 35.1319 204.511 35.0368C205.062 34.674 204.555 34.7595 204.817 34.3307C204.751 34.4389 205.214 33.2991 205.192 33.5374C205.248 32.9303 205.427 33.1169 205.061 32.371C204.343 30.9118 202.515 30.8521 203.447 29.1868C203.813 28.5316 204.136 28.5969 204.239 27.6468C204.295 27.136 204.226 26.5504 204.223 26.0309C204.219 24.9683 204.419 24.2243 203.423 23.6833C202.466 23.1629 201.584 23.7338 201.195 22.4433C200.788 21.0891 201.198 19.353 199.731 18.4256C198.659 17.7481 197.111 18.3274 195.927 17.996C194.74 17.6642 193.648 16.4496 192.443 17.3822C191.587 18.0449 191.133 19.6744 189.52 18.7933C188.792 18.3958 188.392 17.0615 187.933 16.3132C187.201 15.1205 186.615 14.6897 185.489 15.8513C184.796 16.5678 183.333 18.3119 183.243 19.3037C183.145 20.3985 184.101 20.856 182.901 21.5036C181.708 22.1481 181.039 21.6755 180.071 22.9835C179.11 24.2812 179.854 24.9981 178.741 26.2397C177.35 27.7916 176.61 28.4616 176.63 30.5525C176.643 31.9867 175.376 33.2255 176.115 34.5861C176.944 36.111 179.361 36.7451 180.827 37.3657C180.338 38.27 179.666 38.8497 180.238 39.7803C180.755 40.6233 182.218 40.7986 183.125 40.6455C183.735 40.5429 183.756 40.6352 184.236 40.206C184.551 39.9254 184.12 39.5748 184.767 39.4193C185.456 39.2528 186.557 40.6041 187.005 40.9418C186.005 42.2399 183.258 42.4826 181.804 43.1407C180.919 43.5419 180.104 44.1356 179.202 44.4943C178.384 44.8197 177.389 44.7443 176.647 45.2477C175.366 46.1174 174.833 48.2719 174.048 49.5386C173.159 50.9726 172.297 51.6383 170.592 51.9362C168.464 52.3071 166.751 52.4564 164.767 53.3828C162.344 54.5144 159.956 55.7092 157.576 56.9288C153.738 58.8961 150.173 60.9154 146.609 63.2946C142.88 65.7844 139.253 68.3829 135.656 70.9842C132.097 73.557 129.11 76.7221 126.018 79.8336C123.52 82.3487 121.327 85.0632 118.838 87.5776C115.899 90.5466 113.738 94.2936 111.014 97.4434C109.523 99.1661 108.097 100.86 107.161 102.89C106.403 104.536 105.085 106.15 104.205 107.876C103.081 110.083 102.016 112.255 100.754 114.389C100.236 115.264 99.6203 116.016 99.0737 116.852C98.3731 117.922 98.4145 118.956 98.2261 120.19C98.0294 119.889 97.833 119.588 97.6362 119.287C97.2795 120.066 96.8484 120.832 96.5395 121.63C96.3423 122.139 96.3733 122.861 96.1754 123.307C95.927 123.865 95.6245 123.791 95.3149 124.257C94.9837 124.754 94.8769 125.423 94.5282 125.957C93.0195 128.264 92.4392 131.192 91.664 133.825C90.6243 137.357 90.7881 141.417 90.8448 145.059C90.9049 148.906 91.115 152.753 91.6935 156.56C92.2175 160.007 93.3376 163.313 95.0913 166.336C96.6195 168.969 98.7265 170.504 101.426 171.853C102.665 172.473 103.816 172.281 105.116 172.38C106.542 172.488 107.514 172.875 109.021 172.535C109.745 172.372 110.087 171.845 110.662 171.669C111.017 171.561 111.209 171.738 111.551 171.697C112.039 171.637 113.055 171.398 113.585 171.456C115.234 171.636 114.957 174.128 115.119 175.4C115.369 177.36 115.551 179.342 115.888 181.29C116.596 185.387 118.125 189.214 119.028 193.24C114.841 193.75 111.25 194.532 107.326 196.116C103.39 197.705 99.4098 198.245 95.267 199.035C91.3914 199.774 87.6636 201.155 84.5613 203.658C83.1074 204.83 81.5968 206.202 82.6644 208.133C83.3474 209.367 84.5781 209.681 85.6404 210.399C85.8552 210.127 85.2343 209.552 85.1206 209.392C86.0137 209.576 85.9865 209.993 86.6388 210.355C87.2088 210.672 87.6755 210.661 88.2994 210.885C89.823 211.433 90.5718 212.799 92.0778 213.182C92.5517 213.302 93.1715 213.591 93.6557 213.673C94.238 213.771 94.6736 213.517 95.2636 213.624C95.5817 213.834 95.9262 213.984 96.296 214.074C96.5387 213.961 96.7783 213.843 97.0145 213.717C97.8621 213.805 98.3854 214.338 99.0741 214.776C99.12 214.224 99.0538 213.651 99.5759 213.291C99.78 213.828 99.4504 214.168 100.007 214.537C100.712 215.005 101.638 214.421 102.269 214.124C102.448 215.908 106.578 215.803 107.886 215.777C109.699 215.742 111.51 215.023 113.338 215.425C114.271 215.629 115.267 215.843 116.196 216.108C117.314 216.428 118.666 216.714 119.766 217.116C120.204 217.277 120.74 217.79 121.206 217.756C121.577 217.728 121.676 217.181 122.108 217.196C122.597 217.214 122.761 217.759 123.184 217.923C123.817 218.167 124.399 217.702 125 217.937C125.216 218.021 125.509 218.383 125.786 218.502C126.206 218.681 127.037 218.683 127.505 218.769C128.167 218.892 128.761 218.81 129.329 218.85C129.786 218.883 129.776 219.191 129.995 219.211C130.247 219.234 130.684 218.37 131.022 218.243C131.514 218.058 132.406 218.498 132.907 218.575C129.275 223.499 124.895 227.851 120.148 231.661C115.027 235.772 109.782 239.877 104.291 243.483C99.3049 246.756 94.4784 249.588 90.6128 254.209C87.3531 258.106 82.1645 262.275 82.9642 267.923C83.7635 273.566 89.8912 275.862 94.8011 276.94C100.977 278.295 107.334 277.749 113.526 278.511C116.166 278.836 119.1 278.663 121.758 278.386C124.898 278.059 127.589 276.01 130.288 274.529C135.143 271.864 139.293 268.298 144.075 265.55C150.063 262.108 155.987 258.462 162.551 256.158C165.605 255.086 168.749 253.862 171.212 251.657C171.579 251.329 171.852 250.833 172.266 250.563C172.97 250.103 173.159 250.569 173.567 250.43C173.882 250.323 174.186 249.983 174.458 249.881C175.147 249.623 175.454 249.73 176.226 249.73C175.564 249.348 174.958 248.365 175.645 247.563C176.821 246.189 177.024 248.384 177.466 248.892C177.84 248.411 177.697 247.983 177.601 247.435C177.917 247.645 178.234 247.853 178.551 248.063C178.333 247.004 178.54 246.029 179.101 245.106C179.618 244.256 179.746 244.376 179.888 243.197C181.495 244.664 181.809 241.105 181.954 239.807C182.093 238.549 181.955 237.645 182.783 236.544C183.671 235.363 185.022 234.616 186.15 233.699C187.932 232.248 189.892 230.416 192.356 231.807C194.301 232.906 195.359 235.598 197.184 236.981C198.291 237.82 199.459 237.905 200.165 239.207C200.735 240.259 200.92 241.518 201.459 242.598C202.763 245.216 204.642 248.212 206.784 250.22C208.779 252.089 211.339 252.08 213.673 253.239C215.983 254.387 218.384 255.631 220.83 256.463C223.5 257.371 226.381 257.758 228.981 258.858C230.319 259.425 231.515 260.277 232.864 260.819C234.32 261.404 235.853 261.816 237.328 262.351C243.171 264.474 248.889 267.076 255.027 268.253C257.75 268.775 260.27 270.192 263.013 270.49C264.189 270.618 265.148 270.78 266.3 271.075C268.106 271.536 267.723 271.782 268.389 273.287C269.483 275.766 272.156 274.298 274.216 274.36C277.514 274.46 280.762 273.927 284.054 273.901C289.813 273.857 295.357 273.208 300.927 271.318C306.519 269.42 312.886 264.846 308.239 258.526Z" fill="black"/>
<path fill-rule="evenodd" clip-rule="evenodd" d="M241.677 64.8477C241.756 64.9265 241.941 64.9743 241.677 64.8477V64.8477Z" fill="black"/>
<path fill-rule="evenodd" clip-rule="evenodd" d="M140.248 170.427C141.499 169.159 146.82 169.415 147.222 171.683C147.671 174.213 142.916 178.035 141.176 179.107C138.937 180.486 136.203 180.745 136.6 177.282C136.901 174.667 138.467 172.231 140.248 170.427ZM144.643 167.817C144.805 168.519 143.609 168.28 143.28 168.114C143.124 167.795 144.48 167.114 144.643 167.817ZM135.467 172.458C136.528 172.553 137.744 170.851 138.545 170.271C138.898 170.818 136.565 173.825 136.308 174.511C135.667 176.225 135.31 178.391 136.184 180.101C138.739 185.098 145.278 177.962 146.913 175.47C148.057 173.727 148.849 171.565 147.233 169.857C146.658 169.248 145.707 169.079 145.173 168.501C144.469 167.741 145.023 166.759 143.608 166.925C142.632 167.039 141.46 167.92 140.511 168.239C139.367 168.622 138.339 169.02 137.341 169.732C137.116 169.892 134.155 172.34 135.467 172.458Z" fill="black"/>
<path fill-rule="evenodd" clip-rule="evenodd" d="M210.478 174.135C209.811 177.568 206.409 181.09 202.829 181.227C199.265 181.363 198.11 177.628 198.74 174.651C199.276 172.112 201.471 167.702 204.601 168.188C207.063 168.57 211.05 171.193 210.478 174.135ZM208.208 168.397C205.948 166.649 202.825 165.839 200.206 167.227C199.347 167.682 195.918 169.689 196.961 171.047C198.368 169.957 199.582 168.444 201.41 168.081C201.103 169.499 199.347 170.773 198.729 172.153C198.006 173.765 197.61 175.611 197.728 177.382C197.939 180.535 200.051 182.985 203.321 182.552C206.315 182.155 208.931 179.861 210.359 177.281C212.266 173.837 211.192 170.706 208.208 168.397Z" fill="black"/>
<path fill-rule="evenodd" clip-rule="evenodd" d="M187.219 181.939C185.61 184.322 183.156 186.563 180.319 187.299C176.646 188.252 177.678 185.217 178.775 183.038C179.746 181.112 181.411 177.8 183.946 177.818C184.806 177.823 186.409 178.239 187.163 178.699C188.65 179.606 188.066 180.686 187.219 181.939ZM183.791 176.702C184.369 176.059 186.926 173.302 187.268 175.451C188.003 174.6 187.423 173.893 186.483 173.803C185.349 173.695 184.109 174.958 183.291 175.585C181.607 176.876 180.31 178.198 179.194 180.008C177.963 182.003 174.825 186.512 177.571 188.492C180.54 190.632 184.86 186.68 186.719 184.642C187.908 183.338 189.482 181.424 189.03 179.512C188.475 177.164 185.744 176.917 183.791 176.702Z" fill="black"/>
<path fill-rule="evenodd" clip-rule="evenodd" d="M171.125 138.302C169.464 140.197 166.09 142.959 163.31 142.633C160.774 142.337 161.764 139.49 162.661 138.113C164.009 136.043 165.816 134.099 168.425 133.986C169.552 133.937 171.012 133.96 171.884 134.813C173.076 135.978 172.003 137.301 171.125 138.302ZM170.949 133.036C169.003 132.364 168.238 132.108 166.347 133.177C164.829 134.035 163.482 135.248 162.44 136.626C160.88 138.688 159.307 143.325 163.312 143.905C167.705 144.542 178.154 135.528 170.949 133.036Z" fill="black"/>
<path fill-rule="evenodd" clip-rule="evenodd" d="M176.936 144.869C175.672 146.16 174.095 147.213 172.294 147.573C173.056 145.873 174.756 142.16 176.773 141.643C177.702 141.404 178.761 141.716 178.685 142.775C178.63 143.54 177.434 144.36 176.936 144.869ZM178.562 140.377C177.516 139.852 177.846 139.494 176.629 139.905C175.669 140.229 174.459 140.792 173.66 141.439C173.225 141.793 171.868 143.046 172.034 143.684C172.335 144.843 173.347 143.067 173.613 142.726C174.069 143.097 171.737 146.433 171.599 146.983C171.081 149.027 172.687 149.244 174.26 148.574C176.381 147.673 182.662 142.431 178.562 140.377Z" fill="black"/>
<path fill-rule="evenodd" clip-rule="evenodd" d="M209.664 195.398C209.82 194.043 210.043 192.609 211.287 191.848C212.408 191.162 213.569 191.262 213.734 192.669C213.889 193.976 212.609 196.297 211.573 197.009C210.131 198.002 209.853 196.765 209.664 195.398ZM211.516 198.483C214.478 196.75 216.344 188.804 210.886 191.031C207.784 192.297 208.925 199.999 211.516 198.483Z" fill="black"/>
<path fill-rule="evenodd" clip-rule="evenodd" d="M186.228 165.532C186.695 164.575 187.229 164.258 188.176 163.839C187.545 164.435 186.9 164.986 186.228 165.532ZM186.911 163.174C186.24 163.847 184.703 164.873 184.919 166.028C185.115 167.083 185.921 167.023 186.652 166.694C188.184 166.005 189.037 162.989 190.64 162.706C188.862 161.579 188.447 161.632 186.911 163.174Z" fill="black"/>
<path fill-rule="evenodd" clip-rule="evenodd" d="M187.147 103.271C187.232 106.483 187.307 109.695 187.378 112.907C187.403 114.036 187.133 115.645 187.472 116.727C187.622 117.203 188.975 119.268 189.455 119.402C191.134 119.869 190.534 115.658 190.546 114.622C190.587 111.124 190.535 107.622 190.521 104.125C190.513 102.322 191.022 87.2078 188.683 87.2816C188.281 87.2943 187.288 89.0223 187.139 89.3687C186.669 90.4567 186.842 92.0695 186.852 93.2294C186.884 96.5752 187.058 99.9256 187.147 103.271Z" fill="black"/>
<path fill-rule="evenodd" clip-rule="evenodd" d="M201.308 112.635C201.44 113.523 201.37 115.003 202.37 115.464C203.24 115.864 203.573 115.388 203.899 114.644C204.647 112.932 204.377 110.315 204.363 108.545C204.336 105.036 203.941 101.543 203.668 98.0486C203.547 96.5151 203.797 94.975 203.605 93.3703C203.521 92.6663 203.437 89.8335 202.132 89.9655C200.952 90.0846 201.058 93.0533 200.994 93.8182C200.458 100.186 200.365 106.278 201.308 112.635Z" fill="black"/>
<path fill-rule="evenodd" clip-rule="evenodd" d="M257.015 185.756C256.515 188.313 248.353 197.218 246.298 192.238C245.079 189.282 247.722 186.066 249.783 184.355C251.058 183.296 252.652 182.257 254.39 182.578C255.866 182.851 257.332 184.131 257.015 185.756ZM252.8 181.168C252.224 181.305 247.406 184.688 247.362 184.643C246.943 184.224 249.982 179.694 250.295 179.297C252.871 176.033 254.581 178.505 256.193 181.071C255.85 179.538 254.906 177.313 253.328 176.665C251.336 175.847 249.783 177.867 248.825 179.319C247.47 181.371 246.724 183.599 245.971 185.915C245.612 187.02 245.203 188.021 244.596 189.017C243.996 189.999 242.946 191.083 243.101 192.326C243.954 191.852 244.407 190.924 244.944 190.159C245.543 190.402 245.338 192.313 245.459 192.8C245.765 194.022 246.6 194.979 247.892 195.189C250.3 195.58 252.898 193.353 254.508 191.84C256.204 190.246 258.03 188.061 258.016 185.608C258 183.044 255.479 180.534 252.8 181.168Z" fill="black"/>
<path fill-rule="evenodd" clip-rule="evenodd" d="M259.327 140.076C257.962 142.167 255.565 144.672 253.029 145.158C251.167 145.515 249.939 144.135 250.687 142.273C251.319 140.698 253.471 139.704 254.882 139.012C256 138.462 261.218 137.183 259.327 140.076ZM258.323 136.657C255.525 136.551 253.268 138.574 251.181 140.189C251.652 138.334 252.718 136.316 254.219 135.109C256.262 133.466 258.198 134.486 260.348 135.308C259.818 133.634 257.436 133.032 255.919 133.268C254.001 133.567 252.622 135.205 251.652 136.789C250.496 138.678 250.1 140.905 248.738 142.678C248.115 143.489 244.254 146.525 245.128 147.766C246.57 146.235 248.012 144.704 249.454 143.173C249.828 144.983 250.24 147.043 252.55 146.867C254.395 146.726 256.499 145.158 257.848 143.959C259.59 142.411 263.018 136.834 258.323 136.657Z" fill="black"/>
<path fill-rule="evenodd" clip-rule="evenodd" d="M219.127 154.507C217.942 155.052 215.333 155.793 214.67 154.155C213.749 151.881 216.712 147.892 218.121 146.377C218.989 145.445 219.577 144.962 220.787 145.566C221.752 146.048 223.171 147.416 223.541 148.469C224.336 150.729 220.981 153.654 219.127 154.507ZM221.847 143.585C222.812 143.802 222.93 145.028 221.723 144.557C220.819 144.205 220.609 143.305 221.847 143.585ZM223.058 145.311C222.698 144.212 223.431 142.487 221.656 142.408C220.65 142.363 218.808 143.385 217.93 143.801C216.712 144.377 215.567 145.256 214.931 146.495C214.343 147.642 214.763 147.944 215.66 146.992C215.77 147.067 213.631 152.585 213.612 153.138C213.528 155.664 215.317 157.328 217.829 156.88C220.138 156.468 222.218 154.58 223.489 152.675C224.132 151.71 224.66 150.606 224.707 149.425C224.782 147.613 223.573 146.885 223.058 145.311Z" fill="black"/>
<path fill-rule="evenodd" clip-rule="evenodd" d="M237.436 140.275C235.415 139.351 233.158 142.508 234.132 144.384C235.41 146.844 241.644 142.198 237.436 140.275ZM235.026 143.804C234.606 143.056 237.461 141.954 237.912 141.935C237.686 142.348 235.603 144.829 235.026 143.804Z" fill="black"/>
<path fill-rule="evenodd" clip-rule="evenodd" d="M99.8932 138.468C99.7803 137.669 97.9895 138.829 97.9998 139.344C98.2961 138.751 100.128 140.133 99.8932 138.468Z" fill="black"/>
<path fill-rule="evenodd" clip-rule="evenodd" d="M197.84 78.0918C200.12 77.9242 197.214 66.4214 195.553 67.4386C193.752 68.5411 195.747 78.2453 197.84 78.0918Z" fill="black"/>
<path fill-rule="evenodd" clip-rule="evenodd" d="M202.098 72.7206C204.234 73.0264 203.894 68.1215 202.745 67.2437C200.625 65.6232 199.504 72.3493 202.098 72.7206Z" fill="black"/>
</svg>
